<?xml version="1.0" encoding="UTF-8"?>
<svg version="1.1" xmlns="http://www.w3.org/2000/svg" width="1200" height="471">
<path d="M0 0 C396 0 792 0 1200 0 C1200 155.43 1200 310.86 1200 471 C804 471 408 471 0 471 C0 315.57 0 160.14 0 0 Z " fill="#FEFEFE" transform="translate(0,0)"/>
<path d="M0 0 C12.4575 -0.061875 24.915 -0.12375 37.75 -0.1875 C43.58510254 -0.22846802 43.58510254 -0.22846802 49.53808594 -0.27026367 C101.69498672 -0.48546327 101.69498672 -0.48546327 120 14 C120.61359375 14.47695312 121.2271875 14.95390625 121.859375 15.4453125 C130.53559075 23.0849892 135.37716499 35.40896353 136.20092773 46.77148438 C136.30355684 49.78862965 136.32892473 52.79368309 136.3125 55.8125 C136.30512817 57.40698975 136.30512817 57.40698975 136.29760742 59.03369141 C136.10754808 71.73355411 133.51299209 84.84228642 124.609375 94.5703125 C109.49012703 108.0014891 91.15823786 109.17638723 71.9375 109.0625 C67.008125 109.041875 62.07875 109.02125 57 109 C57 124.18 57 139.36 57 155 C38.19 155 19.38 155 0 155 C0 103.85 0 52.7 0 0 Z " fill="#B3B3B3" transform="translate(500,78)"/>
<path d="M0 0 C65.36363636 0 65.36363636 0 82.15625 16.0625 C92.35543228 26.71836208 94.50520094 37.9389501 94.26953125 52.08984375 C93.77804859 64.69649495 88.63567489 74.56240496 79.64453125 83.28515625 C57.44094349 102.17056078 27.49381607 97 0 97 C0 64.99 0 32.98 0 0 Z " fill="#676767" transform="translate(318,136)"/>
<path d="M0 0 C13.2 0 26.4 0 40 0 C53.85228043 38.12947293 53.85228043 38.12947293 57.81860352 50.47924805 C59.32289208 55.13152311 61.04163715 59.64626087 62.88256836 64.17529297 C65.14627091 69.89760857 67.1819961 75.70477975 69.25 81.5 C69.71344863 82.78649185 70.17698974 84.0729504 70.640625 85.359375 C71.07375 86.57109375 71.506875 87.7828125 71.953125 89.03125 C72.34661133 90.13017578 72.74009766 91.22910156 73.14550781 92.36132812 C74 95 74 95 74 97 C61.46 97 48.92 97 36 97 C35.01 93.04 34.02 89.08 33 85 C24.09 85 15.18 85 6 85 C5.01 88.96 4.02 92.92 3 97 C-9.54 97 -22.08 97 -35 97 C-34.01 94.03 -33.02 91.06 -32 88 C-31.43778043 86.29072573 -30.87666763 84.58108639 -30.31738281 82.87084961 C-25.49650012 68.2119839 -20.36109372 53.68106119 -15.07128906 39.18530273 C-13.73276998 35.51525753 -12.40127687 31.84271271 -11.0703125 28.16992188 C-10.20874596 25.80193316 -9.34678173 23.4340891 -8.484375 21.06640625 C-8.09264099 19.98508926 -7.70090698 18.90377228 -7.29730225 17.78968811 C-6.92301086 16.76669113 -6.54871948 15.74369415 -6.16308594 14.68969727 C-5.84080017 13.80500259 -5.5185144 12.92030792 -5.1864624 12.00880432 C-3.5869295 7.95247561 -1.77088984 3.98450214 0 0 Z " fill="#686868" transform="translate(761,136)"/>
<path d="M0 0 C13.53 0 27.06 0 41 0 C47.125 17.4375 47.125 17.4375 49.01611328 22.82202148 C54.35385211 38.01776602 59.704718 53.20846962 65.125 68.375 C65.54136719 69.54160156 65.95773437 70.70820313 66.38671875 71.91015625 C66.79792969 73.06128906 67.20914063 74.21242188 67.6328125 75.3984375 C68.02758789 76.50670898 68.42236328 77.61498047 68.82910156 78.75683594 C69.60147364 80.89615842 70.38958656 83.02987192 71.19433594 85.15722656 C71.56075195 86.12885742 71.92716797 87.10048828 72.3046875 88.1015625 C72.63194824 88.95314941 72.95920898 89.80473633 73.29638672 90.68212891 C74 93 74 93 74 97 C61.46 97 48.92 97 36 97 C34 89 34 89 34 85 C24.76 85 15.52 85 6 85 C5.67 87.31 5.34 89.62 5 92 C4.67 93.65 4.34 95.3 4 97 C-8.54 97 -21.08 97 -34 97 C-31.75023614 86.87606265 -31.75023614 86.87606265 -30.01977539 82.23779297 C-29.6346579 81.19638657 -29.24954041 80.15498016 -28.85275269 79.08201599 C-28.43857086 77.97987259 -28.02438904 76.87772919 -27.59765625 75.7421875 C-27.16349396 74.5719252 -26.72933167 73.4016629 -26.28201294 72.19593811 C-25.35701585 69.70411574 -24.43009228 67.21312367 -23.49960327 64.72335815 C-21.33670402 58.93519391 -19.19112148 53.14060595 -17.04464912 47.34633446 C-16.57236551 46.07168894 -16.09986582 44.79712346 -15.62714958 43.52263832 C-10.26522735 29.06635208 -5.10376914 14.54955083 0 0 Z " fill="#686868" transform="translate(234,136)"/>
<path d="M0 0 C2.00688024 0.98611952 4.00903506 1.98213037 6 3 C3.37589493 11.64411081 -0.31383762 19.76925385 -4 28 C-7.59202796 26.86081399 -10.90418224 25.59899007 -14.25 23.875 C-19.09941346 21.67221558 -23.73237034 21.18228132 -29 22 C-29.99 22.66 -30.98 23.32 -32 24 C-31.8302197 25.95005656 -31.8302197 25.95005656 -31 28 C-29.11069545 29.2636253 -29.11069545 29.2636253 -26.6875 30.0625 C-25.78644531 30.39507812 -24.88539063 30.72765625 -23.95703125 31.0703125 C-20.95017419 32.01566518 -17.9485736 32.74233342 -14.875 33.4375 C-5.7001389 35.64604531 0.56903952 40.24987262 6 48 C9.41086557 54.8443947 9.02697654 63.51732144 6.875 70.75 C3.04282885 80.43687708 -3.21913387 87.68020096 -12.625 92.28515625 C-27.52232984 98.47020837 -46.12960187 98.10352162 -61 92 C-65.08326642 90.1398453 -69.06775042 88.16057669 -73 86 C-72.37344935 82.33597797 -71.35781607 79.12938799 -69.93359375 75.69921875 C-69.53076172 74.72275391 -69.12792969 73.74628906 -68.71289062 72.74023438 C-68.29201172 71.73283203 -67.87113281 70.72542969 -67.4375 69.6875 C-67.01275391 68.66076172 -66.58800781 67.63402344 -66.15039062 66.57617188 C-65.10429072 64.04907659 -64.05404084 61.52379106 -63 59 C-59.05186244 59.86831342 -56.03579496 61.59153321 -52.5 63.5625 C-45.99977038 67.01005972 -40.40630462 68.09354833 -33 67 C-32.34 66.67 -31.68 66.34 -31 66 C-30.94832473 63.57732914 -30.94832473 63.57732914 -32 61 C-36.12063136 58.61919077 -40.18876491 57.71830692 -44.8125 56.6875 C-50.85678247 55.25455535 -56.11235105 52.88200437 -61 49 C-61 48.34 -61 47.68 -61 47 C-61.66 47 -62.32 47 -63 47 C-63.64834654 45.730447 -64.29357815 44.45930294 -64.9375 43.1875 C-65.29714844 42.47980469 -65.65679688 41.77210938 -66.02734375 41.04296875 C-69.40526686 33.94797362 -69.23310977 25.06643832 -66.9765625 17.625 C-62.38483784 7.68049135 -55.06216048 1.13121223 -45 -3 C-44.24734863 -3.33862061 -43.49469727 -3.67724121 -42.71923828 -4.02612305 C-29.78931947 -8.65688675 -12.17806459 -5.65125873 0 0 Z " fill="#676767" transform="translate(913,139)"/>
<path d="M0 0 C21.78 0 43.56 0 66 0 C66 8.58 66 17.16 66 26 C55.77 26 45.54 26 35 26 C35 29.3 35 32.6 35 36 C44.24 36 53.48 36 63 36 C63 43.92 63 51.84 63 60 C53.76 60 44.52 60 35 60 C35 63.3 35 66.6 35 70 C45.56 70 56.12 70 67 70 C67 78.91 67 87.82 67 97 C44.89 97 22.78 97 0 97 C0 64.99 0 32.98 0 0 Z " fill="#676767" transform="translate(423,136)"/>
<path d="M0 0 C24.42 0 48.84 0 74 0 C74 10.23 74 20.46 74 31 C67.73 31 61.46 31 55 31 C55 52.78 55 74.56 55 97 C43.12 97 31.24 97 19 97 C19 75.22 19 53.44 19 31 C12.73 31 6.46 31 0 31 C0 20.77 0 10.54 0 0 Z " fill="#676767" transform="translate(926,136)"/>
<path d="M0 0 C11.88 0 23.76 0 36 0 C36 21.45 36 42.9 36 65 C47.22 65 58.44 65 70 65 C70 75.56 70 86.12 70 97 C46.9 97 23.8 97 0 97 C0 64.99 0 32.98 0 0 Z " fill="#686868" transform="translate(646,136)"/>
<path d="M0 0 C1.2684375 -0.01933594 2.536875 -0.03867187 3.84375 -0.05859375 C9.11133275 0.65613169 11.97144228 2.8864763 15.64282227 6.61181641 C18.03787588 10.25587457 18.00219343 12.5946017 17.99609375 16.93359375 C17.99754898 17.64475845 17.99900421 18.35592316 18.00050354 19.08863831 C17.99884954 20.5872102 17.9873441 22.08579995 17.96655273 23.58422852 C17.93762888 25.8648379 17.9459461 28.14311451 17.95898438 30.42382812 C17.90633713 42.75638112 17.90633713 42.75638112 14.5 48.4375 C9.30131555 53.44860306 1.83413724 52.91309474 -4.9140625 52.96875 C-9.79803184 52.24519899 -12.67961968 50.24652154 -16.14331055 46.80444336 C-18.08736005 43.41276441 -17.9484681 40.15347532 -17.93359375 36.34765625 C-17.9388356 35.56611679 -17.94407745 34.78457733 -17.94947815 33.97935486 C-17.95589009 32.32942897 -17.95457204 30.67945733 -17.94604492 29.02954102 C-17.93753952 26.51169996 -17.9662967 23.99613238 -17.99804688 21.47851562 C-17.99965923 19.87239651 -17.99908069 18.2662734 -17.99609375 16.66015625 C-18.00732773 15.91105484 -18.01856171 15.16195343 -18.03013611 14.39015198 C-17.96448276 9.43894494 -17.03880075 6.90171055 -13.5 3.4375 C-8.9670129 0.5279844 -5.34343651 0.00543032 0 0 Z " fill="#F8F8F8" transform="translate(618.5,339.5625)"/>
<path d="M0 0 C24 0 24 0 30 5 C31.55693041 8.11386082 31.22567195 11.39744932 31.25 14.8125 C31.270625 15.52470703 31.29125 16.23691406 31.3125 16.97070312 C31.3462109 21.52588794 30.92421643 24.45915533 28 28 C23.53024438 31.8805223 18.78313499 31.34898125 13.1875 31.1875 C10.155625 31.125625 7.12375 31.06375 4 31 C4 37.27 4 43.54 4 50 C2.68 50 1.36 50 0 50 C0 33.5 0 17 0 0 Z " fill="#F7F7F7" transform="translate(712,341)"/>
<path d="M0 0 C2.64 0 5.28 0 8 0 C9.9402263 5.38892209 11.879059 10.77834285 13.81665039 16.16821289 C14.4748042 17.99842585 15.13332627 19.82850643 15.79223633 21.65844727 C16.7439914 24.30189114 17.69438299 26.94582196 18.64453125 29.58984375 C18.9352803 30.39646957 19.22602936 31.2030954 19.52558899 32.03416443 C20.35820093 34.35343906 21.18210999 36.67549478 22 39 C22.28902191 39.81896759 22.57804382 40.63793518 22.87582397 41.48171997 C23.28860092 42.67908279 23.28860092 42.67908279 23.7097168 43.90063477 C23.95787643 44.61623062 24.20603607 45.33182648 24.4617157 46.06910706 C25 48 25 48 25 51 C23.35 50.67 21.7 50.34 20 50 C18.68 46.04 17.36 42.08 16 38 C8.08 37.67 0.16 37.34 -8 37 C-10.10874606 43.9701122 -10.10874606 43.9701122 -12 51 C-13.65 51 -15.3 51 -17 51 C-14.40066626 40.18595396 -10.5185548 29.78235879 -6.8125 19.3125 C-6.15133896 17.43567145 -5.49052871 15.5587193 -4.83007812 13.68164062 C-3.22409461 9.11965792 -1.61336681 4.55937653 0 0 Z " fill="#282828" transform="translate(509,341)"/>
<path d="M0 0 C2.64 0 5.28 0 8 0 C8.18347992 0.52760422 8.36695984 1.05520844 8.55599976 1.59880066 C10.46888779 7.09865886 12.38339194 12.59795256 14.29882812 18.09692383 C15.0131088 20.14821219 15.7269797 22.19964328 16.44042969 24.2512207 C17.46701638 27.20301489 18.49508401 30.15428969 19.5234375 33.10546875 C19.84122162 34.02023483 20.15900574 34.93500092 20.48641968 35.87748718 C21.66719496 39.26259422 22.84184334 42.61919963 24.21728516 45.9309082 C25 48 25 48 25 51 C22.64453125 50.83984375 22.64453125 50.83984375 20 50 C18.63671875 47.56640625 18.63671875 47.56640625 17.6875 44.5625 C17.36136719 43.57378906 17.03523437 42.58507812 16.69921875 41.56640625 C16 39 16 39 16 37 C8.08 37 0.16 37 -8 37 C-8.66 39.31 -9.32 41.62 -10 44 C-10.91597463 46.38237438 -11.95367115 48.66954028 -13 51 C-14.32 51 -15.64 51 -17 51 C-14.86363565 42.32336234 -11.93539419 33.97804974 -8.91943359 25.58056641 C-7.12472041 20.54336025 -5.37816083 15.48928418 -3.625 10.4375 C-3.08806519 8.8920752 -3.08806519 8.8920752 -2.5402832 7.31542969 C-1.6931422 4.87708479 -0.84638407 2.43860772 0 0 Z " fill="#282828" transform="translate(763,341)"/>
<path d="M0 0 C2.64 0 5.28 0 8 0 C8.24121582 0.69859131 8.48243164 1.39718262 8.73095703 2.11694336 C9.86171784 5.39066529 10.99331716 8.66409669 12.125 11.9375 C12.73807007 13.71229736 12.73807007 13.71229736 13.36352539 15.52294922 C15.17714035 20.76592575 16.99360024 26.00718353 18.86328125 31.23046875 C19.26812744 32.36270874 19.26812744 32.36270874 19.68115234 33.51782227 C20.16642019 34.86977409 20.65475876 36.22062992 21.14697266 37.57006836 C22.73590499 41.99855764 23.91512406 46.42838324 25 51 C22.64453125 50.83984375 22.64453125 50.83984375 20 50 C18.63671875 47.56640625 18.63671875 47.56640625 17.6875 44.5625 C17.36136719 43.57378906 17.03523438 42.58507812 16.69921875 41.56640625 C16 39 16 39 16 37 C8.08 37.33 0.16 37.66 -8 38 C-9.32 41.96 -10.64 45.92 -12 50 C-14.475 50.495 -14.475 50.495 -17 51 C-16.28277723 46.69666341 -14.9208969 42.71112827 -13.4375 38.625 C-12.89913558 37.12130986 -12.36141181 35.61739025 -11.82421875 34.11328125 C-11.53337402 33.30068848 -11.2425293 32.4880957 -10.94287109 31.65087891 C-9.18675046 26.71355166 -7.46994847 21.76251878 -5.75 16.8125 C-5.4089624 15.83297363 -5.0679248 14.85344727 -4.71655273 13.84423828 C-3.11520704 9.23882698 -1.52558083 4.63122752 0 0 Z " fill="#272727" transform="translate(335,341)"/>
<path d="M0 0 C2.31 0 4.62 0 7 0 C7.98125077 17.01418752 8.11689329 33.96235278 8 51 C6.68 51 5.36 51 4 51 C2.76041422 42.01039896 2.66048954 32.99633627 2.4375 23.9375 C2.39422681 22.29230856 2.35060998 20.64712611 2.30664062 19.00195312 C2.20046162 15.00139494 2.09894483 11.00074337 2 7 C1.75910645 7.73935791 1.51821289 8.47871582 1.27001953 9.24047852 C-1.02394167 16.21144262 -3.48304375 23.0915183 -6.125 29.9375 C-6.64513672 31.29584961 -6.64513672 31.29584961 -7.17578125 32.68164062 C-8.75523547 36.79971953 -10.35600191 40.90719574 -12 45 C-14.64 45 -17.28 45 -20 45 C-20.18062988 44.47792969 -20.36125977 43.95585937 -20.54736328 43.41796875 C-24.54417811 31.88451952 -28.65123162 20.40556102 -33 9 C-34.23407164 22.96864065 -34.54696636 36.98946131 -35 51 C-36.32 51 -37.64 51 -39 51 C-39.02507438 46.12939817 -39.04303343 41.25883547 -39.05493164 36.38818359 C-39.05990175 34.7377863 -39.06668017 33.08739326 -39.07543945 31.43701172 C-39.12815713 21.23459154 -38.91801813 11.16961238 -38 1 C-35.69 1 -33.38 1 -31 1 C-30.63648438 1.90878906 -30.27296875 2.81757813 -29.8984375 3.75390625 C-29.65843018 4.35380371 -29.41842285 4.95370117 -29.17114258 5.57177734 C-28.6341857 6.91441654 -28.09757223 8.25719312 -27.5612793 9.60009766 C-26.17242385 13.07648169 -24.77863714 16.55066748 -23.37109375 20.01953125 C-20.70002192 26.61777373 -18.14502526 33.20742 -16 40 C-12.40826224 31.52218719 -9.02677306 22.97898195 -5.75 14.375 C-4.87068389 12.06997194 -3.99052062 9.76526681 -3.109375 7.4609375 C-2.72749023 6.45853027 -2.34560547 5.45612305 -1.95214844 4.42333984 C-1 2 -1 2 0 0 Z " fill="#262626" transform="translate(689,340)"/>
<path d="M0 0 C8.0469044 0 11.54114258 0.79316897 18 5 C22.40568014 9.62059137 23.17014098 12.44113729 23.25 18.75 C23.27578125 19.96171875 23.3015625 21.1734375 23.328125 22.421875 C22.90226462 27.0657811 21.7293004 30.45114834 18.203125 33.609375 C12.15548299 37.14119794 7.13129559 39 0 39 C0 26.13 0 13.26 0 0 Z " fill="#F9F9F9" transform="translate(353,165)"/>
<path d="M0 0 C2.31 0 4.62 0 7 0 C8.99126274 3.83629212 10.98090619 7.67341893 12.96923828 11.51123047 C13.64167686 12.80864512 14.31450999 14.10585538 14.98779297 15.40283203 C20.08576288 25.22425832 25.05048854 35.10097707 30 45 C30.33 30.15 30.66 15.3 31 0 C32.32 0 33.64 0 35 0 C35 16.83 35 33.66 35 51 C32.69 51 30.38 51 28 51 C27.48091064 49.98687744 26.96182129 48.97375488 26.42700195 47.92993164 C24.48094635 44.13275622 22.5328759 40.33661741 20.58422852 36.54077148 C19.74482043 34.90498122 18.9059422 33.26891895 18.06762695 31.63256836 C16.85510876 29.26602749 15.64062022 26.90050645 14.42578125 24.53515625 C14.05785965 23.81602554 13.68993805 23.09689484 13.31086731 22.35597229 C10.64352021 17.16905986 7.83641398 12.10554516 5 7 C4.67 21.19 4.34 35.38 4 50 C2.68 50 1.36 50 0 50 C0 33.5 0 17 0 0 Z " fill="#1F1F1F" transform="translate(799,341)"/>
<path d="M0 0 C16.32921437 -0.62804671 16.32921437 -0.62804671 22 4 C25.4666096 7.77225036 25.46258715 10.64675905 25.2734375 15.59375 C24.89747412 18.90222777 24.33819478 20.58873664 22 23 C14.87783786 26.89703212 7.99091078 26.23050704 0 26 C0 17.42 0 8.84 0 0 Z " fill="#FDFDFD" transform="translate(557,121)"/>
<path d="M0 0 C1.2684375 -0.01933594 2.536875 -0.03867187 3.84375 -0.05859375 C9.11133275 0.65613169 11.97144228 2.8864763 15.64282227 6.61181641 C18.03787588 10.25587457 18.00219343 12.5946017 17.99609375 16.93359375 C17.99754898 17.64475845 17.99900421 18.35592316 18.00050354 19.08863831 C17.99884954 20.5872102 17.9873441 22.08579995 17.96655273 23.58422852 C17.93762888 25.8648379 17.9459461 28.14311451 17.95898438 30.42382812 C17.90633713 42.75638112 17.90633713 42.75638112 14.5 48.4375 C9.30131555 53.44860306 1.83413724 52.91309474 -4.9140625 52.96875 C-9.79803184 52.24519899 -12.67961968 50.24652154 -16.14331055 46.80444336 C-18.08736005 43.41276441 -17.9484681 40.15347532 -17.93359375 36.34765625 C-17.9388356 35.56611679 -17.94407745 34.78457733 -17.94947815 33.97935486 C-17.95589009 32.32942897 -17.95457204 30.67945733 -17.94604492 29.02954102 C-17.93753952 26.51169996 -17.9662967 23.99613238 -17.99804688 21.47851562 C-17.99965923 19.87239651 -17.99908069 18.2662734 -17.99609375 16.66015625 C-18.00732773 15.91105484 -18.01856171 15.16195343 -18.03013611 14.39015198 C-17.96448276 9.43894494 -17.03880075 6.90171055 -13.5 3.4375 C-8.9670129 0.5279844 -5.34343651 0.00543032 0 0 Z M-11.5 8.4375 C-14.67638949 13.20208424 -13.83327939 18.63666383 -13.81567383 24.20654297 C-13.81252127 26.2983852 -13.83595219 28.38880209 -13.86132812 30.48046875 C-13.8636021 31.81770656 -13.86430416 33.15494815 -13.86328125 34.4921875 C-13.86626221 35.70374512 -13.86924316 36.91530273 -13.87231445 38.16357422 C-13.46812548 41.71778677 -12.61216887 43.58482271 -10.5 46.4375 C-5.71306334 49.87615101 0.91934483 49.12988898 6.5 48.4375 C9.36217982 47.08446954 10.41438241 45.92865434 12.5 43.4375 C14.1565656 38.46780319 13.76424254 33.30094523 13.79516602 28.09570312 C13.80669239 26.7437087 13.82715523 25.39176001 13.85668945 24.04003906 C13.89945917 22.0817118 13.91294668 20.1228147 13.92578125 18.1640625 C13.94036377 16.99439941 13.95494629 15.82473633 13.9699707 14.61962891 C13.40515677 10.7953251 12.1609308 9.18378668 9.5 6.4375 C3.01581294 2.07059851 -5.91254923 3.42312111 -11.5 8.4375 Z " fill="#212121" transform="translate(618.5,339.5625)"/>
<path d="M0 0 C0.75925781 -0.00773437 1.51851563 -0.01546875 2.30078125 -0.0234375 C6.16792278 -0.00989235 9.22791354 0.05700588 12.5 2.25 C12.5 3.24 12.5 4.23 12.5 5.25 C11.90985107 5.23428955 11.31970215 5.2185791 10.71166992 5.20239258 C8.03704414 5.14002061 5.36257136 5.10100343 2.6875 5.0625 C1.2943457 5.02479492 1.2943457 5.02479492 -0.12695312 4.98632812 C-1.01962891 4.97666016 -1.91230469 4.96699219 -2.83203125 4.95703125 C-4.06530151 4.93346558 -4.06530151 4.93346558 -5.32348633 4.90942383 C-8.03098767 5.33308781 -8.89657055 6.05677405 -10.5 8.25 C-10.8636162 11.45138068 -10.8636162 11.45138068 -10.6875 14.9375 C-10.66042969 16.11699219 -10.63335937 17.29648437 -10.60546875 18.51171875 C-10.57066406 19.41535156 -10.53585937 20.31898438 -10.5 21.25 C-9.654375 21.42015625 -8.80875 21.5903125 -7.9375 21.765625 C7.44337854 25.05153996 7.44337854 25.05153996 12.18359375 30.01171875 C14.73946117 34.35745178 14.08556983 39.38326412 13.5 44.25 C11.85546075 47.78271394 10.81399206 49.5443376 7.390625 51.3828125 C3.52066448 52.54380066 -0.04551656 52.54137665 -4.0625 52.5 C-5.19461914 52.51160156 -5.19461914 52.51160156 -6.34960938 52.5234375 C-10.20313167 52.5098568 -13.23842785 52.43014902 -16.5 50.25 C-16.5 48.93 -16.5 47.61 -16.5 46.25 C-15.84257812 46.40984375 -15.18515625 46.5696875 -14.5078125 46.734375 C-10.79005369 47.37170508 -7.13541761 47.47260169 -3.375 47.5 C-2.30185547 47.5309375 -2.30185547 47.5309375 -1.20703125 47.5625 C1.68031444 47.58408763 3.93689998 47.57097812 6.48046875 46.12109375 C7.97125273 43.38513389 7.787156 41.15183597 7.6875 38.0625 C7.66042969 36.97582031 7.63335937 35.88914062 7.60546875 34.76953125 C7.55326172 33.52236328 7.55326172 33.52236328 7.5 32.25 C6.25863281 31.86328125 5.01726562 31.4765625 3.73828125 31.078125 C2.09617265 30.55265025 0.4542555 30.02657694 -1.1875 29.5 C-2.00412109 29.24734375 -2.82074219 28.9946875 -3.66210938 28.734375 C-8.32677109 27.22355339 -11.90622084 25.73745433 -15.5 22.25 C-16.89865903 19.45268195 -16.74537267 17.05715441 -16.8125 13.9375 C-16.84988281 12.80699219 -16.88726562 11.67648437 -16.92578125 10.51171875 C-16.40997187 6.56033493 -15.30817297 5.02866503 -12.5 2.25 C-8.80777387 -0.53595244 -4.42999436 -0.04512728 0 0 Z " fill="#282828" transform="translate(404.5,339.75)"/>
<path d="M0 0 C24 0 24 0 30 5 C31.55693041 8.11386082 31.22567195 11.39744932 31.25 14.8125 C31.270625 15.52470703 31.29125 16.23691406 31.3125 16.97070312 C31.3462109 21.52588794 30.92421643 24.45915533 28 28 C23.53024438 31.8805223 18.78313499 31.34898125 13.1875 31.1875 C10.155625 31.125625 7.12375 31.06375 4 31 C4 37.27 4 43.54 4 50 C2.68 50 1.36 50 0 50 C0 33.5 0 17 0 0 Z M4 4 C4 11.59 4 19.18 4 27 C6.8875 27.061875 9.775 27.12375 12.75 27.1875 C13.65331055 27.21481201 14.55662109 27.24212402 15.48730469 27.27026367 C18.99309846 27.30670073 21.37143356 27.33087581 24.515625 25.67578125 C27.29757305 22.53510832 27.24456069 19.14855113 27.375 15.125 C27.42398438 14.09632813 27.47296875 13.06765625 27.5234375 12.0078125 C27.18670598 8.8531255 27.18670598 8.8531255 25.05859375 6.13671875 C20.84311484 3.19180564 17.68269296 3.43321727 12.6875 3.6875 C9.820625 3.790625 6.95375 3.89375 4 4 Z " fill="#1E1E1E" transform="translate(712,341)"/>
<path d="M0 0 C1.65 0 3.3 0 5 0 C9.66666667 9.33333333 14.33333333 18.66666667 19 28 C21.37996735 25.03135893 23.05115956 22.05498986 24.6640625 18.61328125 C25.14617188 17.59298828 25.62828125 16.57269531 26.125 15.52148438 C26.8675 13.93303711 26.8675 13.93303711 27.625 12.3125 C28.61534967 10.20356307 29.60744172 8.09544317 30.6015625 5.98828125 C31.25632568 4.58896362 31.25632568 4.58896362 31.92431641 3.16137695 C33 1 33 1 34 0 C35.66617115 -0.04063832 37.33388095 -0.042721 39 0 C38.64603149 0.74552124 38.64603149 0.74552124 38.28491211 1.50610352 C37.78616577 2.55689087 37.78616577 2.55689087 37.27734375 3.62890625 C36.90673828 4.4089502 36.53613281 5.18899414 36.15429688 5.99267578 C35.33533087 7.72229781 34.52029535 9.45378577 33.70898438 11.18701172 C31.84080455 15.17045795 29.96157898 19.1275726 27.87890625 23.00390625 C22.9263771 32.42096901 21.90972508 40.4636269 22 51 C20.35 51 18.7 51 17 51 C17.1134375 50.071875 17.226875 49.14375 17.34375 48.1875 C18.25977968 32.26282858 9.78091761 19.07736485 2.41368103 5.5322113 C0 1.09365555 0 1.09365555 0 0 Z " fill="#282828" transform="translate(843,341)"/>
<path d="M0 0 C0.76763672 0.00064453 1.53527344 0.00128906 2.32617188 0.00195312 C5.60828681 0.02770642 8.30489037 0.14329679 11.4375 1.1875 C11.1075 2.1775 10.7775 3.1675 10.4375 4.1875 C9.19613281 4.20167969 7.95476563 4.21585937 6.67578125 4.23046875 C5.03381757 4.277382 3.39189163 4.32562932 1.75 4.375 C0.93337891 4.38080078 0.11675781 4.38660156 -0.72460938 4.39257812 C-1.52060547 4.42158203 -2.31660156 4.45058594 -3.13671875 4.48046875 C-4.22859497 4.50403442 -4.22859497 4.50403442 -5.3425293 4.52807617 C-8.83341383 5.56501438 -10.34996789 7.34199816 -12.5625 10.1875 C-13.32713109 13.66877136 -13.32713109 13.66877136 -13.2265625 17.5 C-13.23134613 18.19134033 -13.23612976 18.88268066 -13.24105835 19.5949707 C-13.24444736 21.05064176 -13.2353145 22.50638996 -13.21435547 23.96191406 C-13.18756546 26.18207497 -13.21412647 28.39718261 -13.24609375 30.6171875 C-13.24278946 32.03646942 -13.23638281 33.45574821 -13.2265625 34.875 C-13.21810303 36.79892578 -13.21810303 36.79892578 -13.20947266 38.76171875 C-12.39540049 43.07230767 -11.01627703 44.55192562 -7.5625 47.1875 C-5.37591431 47.94330209 -5.37591431 47.94330209 -3.13671875 47.89453125 C-2.34072266 47.92353516 -1.54472656 47.95253906 -0.72460938 47.98242188 C0.50032227 47.99112305 0.50032227 47.99112305 1.75 48 C2.58595703 48.02513672 3.42191406 48.05027344 4.28320312 48.07617188 C6.33413409 48.1347699 8.38586593 48.16406493 10.4375 48.1875 C10.7675 49.1775 11.0975 50.1675 11.4375 51.1875 C8.08682051 52.86283975 4.36831208 52.45631948 0.6875 52.5 C-0.11171875 52.52900391 -0.9109375 52.55800781 -1.734375 52.58789062 C-7.16474476 52.64594556 -10.33071867 51.90614617 -14.5625 48.1875 C-17.72414326 44.03181947 -18.02983607 40.31495017 -18.03125 35.25390625 C-18.03886353 34.49834946 -18.04647705 33.74279266 -18.05432129 32.96434021 C-18.06509142 31.37168673 -18.06798796 29.7789628 -18.06347656 28.1862793 C-18.06250415 25.76034876 -18.10415457 23.33758378 -18.1484375 20.91210938 C-18.15364527 19.35938155 -18.15633268 17.80664281 -18.15625 16.25390625 C-18.17264526 15.53497696 -18.18904053 14.81604767 -18.20593262 14.07533264 C-18.12806794 8.3507198 -16.44365851 6.07933419 -12.5625 2.1875 C-8.87675717 -0.63958626 -4.44631074 -0.07129106 0 0 Z " fill="#1F1F1F" transform="translate(579.5625,339.8125)"/>
<path d="M0 0 C2.36794003 2.36794003 2.88528125 4.1393237 3.9453125 7.3046875 C4.29980469 8.36300781 4.65429688 9.42132813 5.01953125 10.51171875 C5.38433594 11.62160156 5.74914062 12.73148437 6.125 13.875 C6.68380859 15.52822266 6.68380859 15.52822266 7.25390625 17.21484375 C7.60582031 18.27574219 7.95773437 19.33664062 8.3203125 20.4296875 C8.80395264 21.88737549 8.80395264 21.88737549 9.29736328 23.37451172 C10 26 10 26 10 30 C3.4 30 -3.2 30 -10 30 C-7.46720598 20.0095347 -4.63127878 9.26255756 0 0 Z " fill="#F3F3F3" transform="translate(513,344)"/>
<path d="M0 0 C0.66 0 1.32 0 2 0 C3.28751357 3.78834888 4.56909069 7.57864846 5.84521484 11.37084961 C6.28011228 12.66046159 6.71662422 13.94953029 7.15478516 15.23803711 C7.78452574 17.0908453 8.40797257 18.94578889 9.03125 20.80078125 C9.40830078 21.91622314 9.78535156 23.03166504 10.17382812 24.1809082 C11 27 11 27 11 30 C4.4 30 -2.2 30 -9 30 C-6.76642336 19.94890511 -6.76642336 19.94890511 -5.0625 15.5625 C-3.12988845 10.43782217 -1.50723556 5.263906 0 0 Z " fill="#F4F4F4" transform="translate(766,344)"/>
<path d="M0 0 C0.66 0 1.32 0 2 0 C3.28545488 3.94981082 4.56710386 7.90083381 5.84521484 11.85302734 C6.28068891 13.19776866 6.71720755 14.54217217 7.15478516 15.88623047 C7.78301527 17.81650666 8.40749754 19.74796046 9.03125 21.6796875 C9.40830078 22.84226074 9.78535156 24.00483398 10.17382812 25.20263672 C11 28 11 28 11 30 C4.4 30 -2.2 30 -9 30 C-6.6367449 19.75922789 -3.41022867 9.93270488 0 0 Z " fill="#F6F6F6" transform="translate(338,344)"/>
<path d="M0 0 C0.86625 0.165 1.7325 0.33 2.625 0.5 C0.35284882 4.12393732 -2.08199702 7.41143707 -4.86328125 10.6640625 C-5.48654297 11.39367187 -6.10980469 12.12328125 -6.75195312 12.875 C-8.05450202 14.3891638 -9.36456431 15.8968931 -10.68164062 17.3984375 C-11.29845703 18.12546875 -11.91527344 18.8525 -12.55078125 19.6015625 C-13.11708252 20.25463379 -13.68338379 20.90770508 -14.2668457 21.58056641 C-15.57527236 23.42734895 -15.57527236 23.42734895 -15.21069336 25.54101562 C-14.31464632 27.64147764 -13.33737378 29.03292409 -11.828125 30.7421875 C-11.3125 31.33386719 -10.796875 31.92554688 -10.265625 32.53515625 C-9.45351563 33.44587891 -9.45351563 33.44587891 -8.625 34.375 C-7.56734756 35.58041271 -6.51005247 36.78613907 -5.453125 37.9921875 C-4.93943359 38.57709961 -4.42574219 39.16201172 -3.89648438 39.76464844 C-3.39439453 40.33731445 -2.89230469 40.90998047 -2.375 41.5 C-1.87806641 42.06493164 -1.38113281 42.62986328 -0.86914062 43.21191406 C2.625 47.27034115 2.625 47.27034115 2.625 49.5 C3.285 49.5 3.945 49.5 4.625 49.5 C4.625 50.16 4.625 50.82 4.625 51.5 C1.88671875 51.79296875 1.88671875 51.79296875 -1.375 51.5 C-3.54296875 49.55078125 -3.54296875 49.55078125 -5.5625 46.8125 C-6.69751953 45.32169922 -6.69751953 45.32169922 -7.85546875 43.80078125 C-8.4575415 42.99954834 -8.4575415 42.99954834 -9.07177734 42.18212891 C-11.84067097 38.60819165 -14.86112778 35.2349569 -17.83276367 31.8293457 C-19.93069499 29.38358652 -21.34464827 27.59105519 -22.375 24.5 C-21.39038086 22.81762695 -21.39038086 22.81762695 -19.83984375 20.98828125 C-19.27716797 20.31216797 -18.71449219 19.63605469 -18.13476562 18.93945312 C-17.53341797 18.23755859 -16.93207031 17.53566406 -16.3125 16.8125 C-15.15342242 15.4348758 -13.99586607 14.05597025 -12.83984375 12.67578125 C-12.26298828 11.99402832 -11.68613281 11.31227539 -11.09179688 10.60986328 C-8.84016344 7.84271081 -6.79439377 4.94518606 -4.77319336 2.0065918 C-3.375 0.5 -3.375 0.5 0 0 Z " fill="#282828" transform="translate(480.375,340.5)"/>
<path d="M0 0 C0.33 0 0.66 0 1 0 C1.10546143 0.57331055 1.21092285 1.14662109 1.31958008 1.73730469 C3.26166417 12.24542329 5.24542711 22.67035165 8 33 C3.05 33 -1.9 33 -7 33 C-6.72414063 31.77410156 -6.44828125 30.54820312 -6.1640625 29.28515625 C-4.84461934 23.34766203 -3.60990576 17.39304842 -2.375 11.4375 C-2.14554688 10.33341797 -1.91609375 9.22933594 -1.6796875 8.09179688 C-1.1192404 5.39464522 -0.55935673 2.69737795 0 0 Z " fill="#F2F2F2" transform="translate(780,165)"/>
<path d="M0 0 C0.33 0 0.66 0 1 0 C2.00743388 4.08153621 3.0046554 8.16550029 4 12.25 C4.28617187 13.40886719 4.57234375 14.56773437 4.8671875 15.76171875 C5.13789063 16.87675781 5.40859375 17.99179688 5.6875 19.140625 C5.93886719 20.16704102 6.19023437 21.19345703 6.44921875 22.25097656 C7 25 7 25 7 29 C2.38 29 -2.24 29 -7 29 C-6.35180847 22.68749842 -5.07063096 16.70591082 -3.5 10.5625 C-3.16162109 9.19834961 -3.16162109 9.19834961 -2.81640625 7.80664062 C-1.13139205 1.13139205 -1.13139205 1.13139205 0 0 Z " fill="#F3F3F3" transform="translate(254,169)"/>
<path d="M0 0 C1.32 0 2.64 0 4 0 C4 16.5 4 33 4 50 C2.68 50 1.36 50 0 50 C0 33.5 0 17 0 0 Z " fill="#161616" transform="translate(452,341)"/>
<path d="M0 0 C1.32 0 2.64 0 4 0 C4 16.5 4 33 4 50 C2.68 50 1.36 50 0 50 C0 33.5 0 17 0 0 Z " fill="#161616" transform="translate(432,341)"/>
<path d="M0 0 C0.33 0 0.66 0 1 0 C1 16.5 1 33 1 50 C2.32 50 3.64 50 5 50 C5 33.5 5 17 5 0 C5.33 0 5.66 0 6 0 C6.02505615 0.7113208 6.0501123 1.4226416 6.07592773 2.15551758 C6.19188439 5.37469517 6.31461245 8.59357985 6.4375 11.8125 C6.47681641 12.93205078 6.51613281 14.05160156 6.55664062 15.20507812 C6.59853516 16.27822266 6.64042969 17.35136719 6.68359375 18.45703125 C6.72025146 19.44678955 6.75690918 20.43654785 6.79467773 21.45629883 C6.90790331 24.1218351 6.90790331 24.1218351 8 27 C7.34 27 6.68 27 6 27 C6 34.92 6 42.84 6 51 C4.02 51 2.04 51 0 51 C0 34.17 0 17.34 0 0 Z " fill="#BBBBBB" transform="translate(451,341)"/>
<path d="M0 0 C0.33 0 0.66 0 1 0 C1.33 2.97 1.66 5.94 2 9 C1.01 9.33 0.02 9.66 -1 10 C-0.67 6.7 -0.34 3.4 0 0 Z " fill="#DADADA" transform="translate(780,165)"/>
</svg>
