<?xml version="1.0" encoding="UTF-8"?>
<svg version="1.1" xmlns="http://www.w3.org/2000/svg" width="1280" height="357">
<path d="M0 0 C422.4 0 844.8 0 1280 0 C1280 117.81 1280 235.62 1280 357 C857.6 357 435.2 357 0 357 C0 239.19 0 121.38 0 0 Z " fill="#FEFEFE" transform="translate(0,0)"/>
<path d="M0 0 C1.22145721 -0.00525696 1.22145721 -0.00525696 2.46759033 -0.01062012 C5.1302572 -0.01934405 7.7926532 -0.01362102 10.45532227 -0.00683594 C12.32422435 -0.0081854 14.19312609 -0.01012828 16.06202698 -0.01263428 C19.96798056 -0.01557302 23.8738423 -0.01132874 27.77978516 -0.00195312 C32.76371557 0.00943267 37.74743032 0.00287946 42.73135281 -0.00909805 C46.58772885 -0.01635727 50.44405457 -0.01401 54.30043221 -0.00884247 C56.13707569 -0.00751677 57.97372388 -0.00911543 59.81036186 -0.01380157 C77.99308097 -0.05001754 77.99308097 -0.05001754 86.33422852 2.25878906 C87.72641602 2.59330078 87.72641602 2.59330078 89.14672852 2.93457031 C103.39880477 7.08294251 114.7998117 14.3896601 122.51782227 27.22753906 C126.9748188 35.45584035 127.63923522 43.84567237 127.59985352 53.05957031 C127.60176697 54.05836716 127.60368042 55.057164 127.60565186 56.08622742 C127.60700441 58.18126683 127.60337342 60.27631489 127.5949707 62.37133789 C127.58420111 65.57945408 127.59492671 68.78701754 127.60766602 71.99511719 C127.60634536 74.03743613 127.60378493 76.07975473 127.59985352 78.12207031 C127.60390198 79.07938553 127.60795044 80.03670074 127.61212158 81.02302551 C127.6026651 82.36043037 127.6026651 82.36043037 127.59301758 83.72485352 C127.59142639 84.50601028 127.58983521 85.28716705 127.5881958 86.09199524 C127.29932509 88.5565775 126.64314226 90.15861545 125.33422852 92.25878906 C122.89810373 93.47685145 121.33303984 93.3888114 118.60966492 93.39682007 C117.11445312 93.40500008 117.11445312 93.40500008 115.58903503 93.41334534 C114.49134293 93.41438766 113.39365082 93.41542999 112.26269531 93.41650391 C111.10975983 93.42158463 109.95682434 93.42666534 108.76895142 93.43190002 C106.25840204 93.44262188 103.747843 93.45123489 101.23727989 93.45801926 C97.26612039 93.46977787 93.29503986 93.48893958 89.32392883 93.51113892 C78.03060824 93.57307484 66.73729229 93.62706152 55.44384766 93.66015625 C49.20856665 93.67850867 42.97342819 93.70745296 36.73825198 93.74816096 C33.43880638 93.76922228 30.13957971 93.78300077 26.8400631 93.78696823 C23.15781066 93.79186439 19.4760901 93.81499044 15.79394531 93.84228516 C14.7023259 93.83927902 13.61070648 93.83627289 12.48600769 93.83317566 C5.39214017 93.83073439 5.39214017 93.83073439 -0.66577148 97.25878906 C-3.73745897 101.68425979 -3.40268775 107.10781882 -2.66577148 112.25878906 C-1.30683778 115.05245357 -0.08994075 116.16518834 2.33422852 118.25878906 C5.3547295 119.29782256 8.18599466 119.39166386 11.36418152 119.41027832 C12.88480949 119.42279381 12.88480949 119.42279381 14.43615723 119.43556213 C15.5422937 119.43974655 16.64843018 119.44393097 17.78808594 119.44824219 C18.95749222 119.45653549 20.1268985 119.4648288 21.33174133 119.47337341 C23.87117854 119.49077223 26.41063178 119.50593951 28.95009422 119.51914978 C32.96231707 119.5401575 36.97447628 119.56703824 40.98664856 119.5958252 C50.22335244 119.66097135 59.46010937 119.71650866 68.69687653 119.77181244 C77.17090391 119.82262633 85.64490494 119.87545245 94.11886674 119.93633795 C97.45498281 119.96007101 100.79109149 119.98164743 104.12724876 119.99842834 C107.84106024 120.01770818 111.55478846 120.04287937 115.26855469 120.06933594 C116.38076385 120.07352036 117.49297302 120.07770477 118.6388855 120.08201599 C119.64417801 120.09035965 120.64947052 120.09870331 121.68522644 120.1072998 C122.56403064 120.11245354 123.44283484 120.11760727 124.34826946 120.12291718 C126.33422852 120.25878906 126.33422852 120.25878906 127.33422852 121.25878906 C127.55232607 125.51627333 127.52002013 129.77924631 127.51953125 134.04174805 C127.52171594 136.18395906 127.53986363 138.32565377 127.55883789 140.46777344 C127.56177211 141.82389146 127.56375671 143.18001194 127.56469727 144.53613281 C127.56880615 145.77613037 127.57291504 147.01612793 127.57714844 148.29370117 C127.33422852 151.25878906 127.33422852 151.25878906 125.33422852 153.25878906 C123.03006744 153.51885128 123.03006744 153.51885128 120.08972168 153.53294373 C118.97707443 153.54291885 117.86442719 153.55289398 116.71806335 153.56317139 C115.49118301 153.56383606 114.26430267 153.56450073 113.00024414 153.56518555 C111.06807793 153.57767082 111.06807793 153.57767082 109.09687805 153.59040833 C105.5525039 153.6124102 102.0082161 153.62116261 98.46378136 153.62623477 C96.24277604 153.62987904 94.02179324 153.63612022 91.80079651 153.64323616 C84.03181979 153.66777381 76.26290996 153.68078679 68.49389648 153.68432617 C61.29017702 153.68793989 54.08688932 153.7176669 46.88330126 153.75973076 C40.67749626 153.7946766 34.47183219 153.80987896 28.2659297 153.81057221 C24.56966932 153.81135841 20.87384605 153.81978457 17.1776886 153.84856987 C-5.03323087 154.01085146 -26.74102599 153.59420156 -43.97827148 137.63378906 C-51.96903657 129.22379464 -56.88740749 118.48727057 -56.95629883 106.86743164 C-56.96301605 106.15270691 -56.96973328 105.43798218 -56.97665405 104.70159912 C-56.99556109 102.35210094 -56.99955502 100.00288973 -57.00170898 97.65332031 C-57.00814381 96.00672797 -57.01487267 94.36013675 -57.0218811 92.71354675 C-57.03383697 89.26465203 -57.03756386 85.81585733 -57.03637695 82.36694336 C-57.03617428 77.97360025 -57.06343007 73.58090776 -57.09792137 69.18771839 C-57.1202974 65.78593575 -57.12421118 62.38430677 -57.1231575 58.98245811 C-57.12549917 57.36432347 -57.13424075 55.74618365 -57.14982224 54.12812233 C-57.28384823 38.76778477 -54.07179738 26.9037686 -43.29077148 15.50878906 C-31.91667685 4.80085615 -15.42637472 -0.08363378 0 0 Z " fill="#3A3C41" transform="translate(779.665771484375,167.7412109375)"/>
<path d="M0 0 C7.50168687 -0.25637894 15.00291306 -0.45106471 22.50800037 -0.56993389 C25.99447069 -0.62703165 29.47791704 -0.70426278 32.96264648 -0.82983398 C58.63788873 -1.7313387 58.63788873 -1.7313387 64.83183289 3.80107117 C66.83734257 6.04415518 68.44077345 8.431634 70 11 C71.07963091 12.2712518 72.178478 13.5270208 73.3125 14.75 C73.84746094 15.37648437 74.38242187 16.00296875 74.93359375 16.6484375 C77.8421226 19.95833233 80.86085704 23.16139461 83.875 26.375 C88.57847204 31.39368178 93.23988579 36.44207563 97.82421875 41.5703125 C100.3894527 44.4349005 102.97434358 47.281133 105.5625 50.125 C106.40941406 51.05570313 107.25632812 51.98640625 108.12890625 52.9453125 C109.05509766 53.96238281 109.05509766 53.96238281 110 55 C114.11737677 54.47941213 115.99002414 52.34887273 118.8125 49.4375 C119.699375 48.52355469 120.58625 47.60960937 121.5 46.66796875 C124.05516909 43.94112424 126.52790409 41.16691493 128.95703125 38.328125 C131.73945377 35.15733375 134.62085442 32.08286062 137.5 29 C142.57239733 23.56548246 142.57239733 23.56548246 147.5 18 C148.01022705 17.45102051 148.5204541 16.90204102 149.04614258 16.33642578 C150.63440972 14.43717343 151.83390125 12.6700666 153.11987305 10.57763672 C156.79321252 5.16511943 160.54766252 0.82671993 167.11309814 -0.7454834 C175.47406941 -1.69324897 183.85716277 -1.348425 192.24279785 -0.96130371 C195.71469353 -0.81653047 199.18804817 -0.75382636 202.66210938 -0.68359375 C209.44495101 -0.53467186 216.22205181 -0.29666347 223 0 C223 4.76130563 222.18706669 5.46986197 219.1875 9 C217.95580078 10.4540625 217.95580078 10.4540625 216.69921875 11.9375 C213.56414554 15.52568478 210.33537733 19.02630161 207.09082031 22.51538086 C203.28774588 26.62432014 199.75993193 30.91890603 196.25 35.28125 C193.89524929 38.12657378 191.4399162 40.8464629 188.9375 43.5625 C185.83785575 46.92919052 182.88303221 50.3341262 180.0625 53.9375 C176.51119673 58.46722356 172.70012554 62.69299369 168.76782227 66.89038086 C166.34082421 69.4894504 164.06584598 72.10369767 162 75 C163.5979317 78.86242919 166.22150237 81.58216189 169.0625 84.5625 C172.68986992 88.43675897 176.17546573 92.35785875 179.5 96.5 C182.69931722 100.47629426 186.02584945 104.26668298 189.5 108 C193.7883361 112.60868215 197.80216281 117.37465235 201.75 122.28125 C204.10475071 125.12657378 206.5600838 127.8464629 209.0625 130.5625 C212.30703111 134.10613632 215.49444301 137.67689559 218.5625 141.375 C219.20316406 142.14585937 219.84382813 142.91671875 220.50390625 143.7109375 C222.13117933 146.2007078 222.7113344 148.0525723 223 151 C221.26431509 152.73568491 218.88832825 152.19943247 216.52148438 152.25634766 C215.34936401 152.28532135 214.17724365 152.31429504 212.96960449 152.34414673 C208.2849311 152.42865262 203.60028967 152.50155844 198.91509247 152.54844093 C195.36186528 152.58409686 191.81092246 152.6371017 188.25878906 152.73388672 C184.16181113 152.84517732 180.06712276 152.88180592 175.96875 152.9140625 C174.70591187 152.95737701 173.44307373 153.00069153 172.14196777 153.0453186 C165.40697427 153.03098666 161.67501743 152.46449009 156.78515625 147.6262207 C155.48830027 146.11357743 154.22139225 144.57420649 153 143 C152.1646875 142.03191406 151.329375 141.06382812 150.46875 140.06640625 C149.8190625 139.24011719 149.169375 138.41382813 148.5 137.5625 C144.84513663 133.00347182 141.03568756 128.63897048 137.10546875 124.31640625 C132.98567536 119.78386918 128.98222195 115.1528819 125.00390625 110.49609375 C124.20110229 109.55685059 124.20110229 109.55685059 123.38208008 108.59863281 C122.31163369 107.34516171 121.24241677 106.09063939 120.17456055 104.83496094 C119.67867432 104.25391602 119.18278809 103.67287109 118.671875 103.07421875 C118.00816895 102.29437622 118.00816895 102.29437622 117.33105469 101.4987793 C115.93452824 99.92627823 114.56362866 98.40844936 113 97 C109.97654164 97.01246787 108.94629058 98.05027721 106.73828125 100.1171875 C105.53751953 101.48230469 105.53751953 101.48230469 104.3125 102.875 C103.65894531 103.61266602 103.65894531 103.61266602 102.9921875 104.36523438 C99.30583048 108.5591333 95.79642414 112.89435809 92.2890625 117.23828125 C89.09370745 121.09342804 85.71795763 124.76944016 82.33203125 128.45703125 C80.38653487 130.57850218 78.46205993 132.71249383 76.5625 134.875 C76.01875732 135.45572266 75.47501465 136.03644531 74.91479492 136.63476562 C72.85265094 139.01803281 72.85265094 139.01803281 71.34228516 142.21801758 C68.94039513 146.46459574 66.37256304 149.68945216 62 152 C52.58526595 154.10646027 42.54992605 153.28687919 32.96740723 152.89263916 C29.3614251 152.75853576 25.75425235 152.70004854 22.14648438 152.63476562 C15.09474431 152.49622542 8.04784754 152.27502134 1 152 C0.34814453 149.69775391 0.34814453 149.69775391 0 147 C1.88505032 144.5451917 3.68632228 142.52563444 5.875 140.375 C7.08851819 139.13011462 8.2994416 137.8826948 9.5078125 136.6328125 C10.4054834 135.71097168 10.4054834 135.71097168 11.32128906 134.77050781 C13.59937064 132.367854 15.6814011 129.83390823 17.75 127.25 C20.56940085 123.73089383 23.46143145 120.33194758 26.5 117 C29.61458668 113.58260628 32.5918662 110.0947765 35.5 106.5 C39.10277348 102.04657167 42.86750345 97.79001814 46.7265625 93.55859375 C49.9593237 89.92034876 53.00813104 86.14220237 56.0546875 82.34765625 C58 80 58 80 59.8203125 78.43359375 C60.20960938 77.96050781 60.59890625 77.48742187 61 77 C60.56620235 73.86001587 59.56006291 72.17963686 57.375 69.93359375 C56.8377832 69.37124023 56.30056641 68.80888672 55.74707031 68.22949219 C55.17053711 67.63813477 54.59400391 67.04677734 54 66.4375 C49.12775726 61.32550776 44.53726006 56.1027914 40.1171875 50.58984375 C37.23053537 47.05875452 34.17669062 43.69435968 31.109375 40.3203125 C25.65676465 34.32244112 20.42590367 28.14221523 15.20776367 21.94067383 C11.49479227 17.54469509 7.67030527 13.26134497 3.77734375 9.0234375 C0.88716837 5.73308399 0 4.50711614 0 0 Z " fill="#393B40" transform="translate(923,169)"/>
<path d="M0 0 C1.69397427 0.86516283 3.36696598 1.77467675 5 2.75 C6.093125 3.389375 7.18625 4.02875 8.3125 4.6875 C9.199375 5.368125 10.08625 6.04875 11 6.75 C12.54494141 7.90822266 12.54494141 7.90822266 14.12109375 9.08984375 C19.40491661 13.65355212 22.94794576 19.59286603 26.75 25.375 C27.57485093 26.61269747 28.40079958 27.849664 29.2277832 29.0859375 C30.95047395 31.66293248 32.66838082 34.24302345 34.38330078 36.82519531 C38.20300104 42.56659926 42.08925543 48.26275659 45.97058105 53.96258545 C50.74564051 60.97620849 55.50736068 67.99805523 60.20703125 75.0625 C63.26258969 79.65507864 66.35977583 84.21504231 69.5 88.75 C72.61815865 93.26930249 75.71641737 97.79824708 78.75 102.375 C81.92729266 107.16708955 85.15591993 111.92221573 88.39916992 116.66992188 C90.36128602 119.54242299 92.3195606 122.41751324 94.27734375 125.29296875 C96.56946647 128.65862473 98.87326279 132.01550742 101.19140625 135.36328125 C102.10707103 136.70031529 103.02245782 138.03753978 103.9375 139.375 C104.35628418 139.97159424 104.77506836 140.56818848 105.20654297 141.18286133 C107.41646183 144.43680261 108 145.6680445 108 149.75 C100.13505199 149.95300798 92.27078021 150.0930087 84.40380859 150.18945312 C81.7274307 150.22514898 79.05447375 150.284203 76.37841797 150.35351562 C72.53048422 150.45067845 68.68487493 150.49595737 64.8359375 150.53125 C63.04499161 150.59318542 63.04499161 150.59318542 61.21786499 150.65637207 C53.11560502 150.66074053 53.11560502 150.66074053 49.99995422 148.11723328 C48.43185157 146.0688503 47.20044981 144.0303663 46 141.75 C45.35861084 140.77264893 44.71722168 139.79529785 44.05639648 138.78833008 C43.22217163 137.41777466 43.22217163 137.41777466 42.37109375 136.01953125 C41.73494141 134.97949951 41.09878906 133.93946777 40.44335938 132.86791992 C39.78142578 131.77713135 39.11949219 130.68634277 38.4375 129.5625 C37.73417362 128.41028855 37.03039081 127.2583556 36.32617188 126.10668945 C34.90082746 123.77539958 33.47704659 121.44316613 32.05419922 119.11035156 C29.0565712 114.2066967 26.02991224 109.32124899 23 104.4375 C19.65902587 99.04632569 16.32098211 93.65351464 13 88.25 C7.84080674 79.85946489 2.66246806 71.4808574 -2.53466797 63.11376953 C-3.79031291 61.08825232 -5.03912538 59.05877933 -6.28515625 57.02734375 C-6.89230469 56.04894531 -7.49945313 55.07054687 -8.125 54.0625 C-8.62257813 53.25425781 -9.12015625 52.44601563 -9.6328125 51.61328125 C-11.03501045 49.47916578 -11.03501045 49.47916578 -14 47.75 C-17.41538144 47.16630557 -17.41538144 47.16630557 -21 47.75 C-25.32145093 51.39644169 -27.98760031 55.63155094 -30.8125 60.4375 C-31.78309318 62.05644606 -32.75449653 63.67490658 -33.7265625 65.29296875 C-34.25024414 66.16872559 -34.77392578 67.04448242 -35.31347656 67.94677734 C-38.3974694 73.07277702 -41.54676969 78.15864272 -44.6875 83.25 C-46.05877199 85.47645273 -47.42986331 87.70301675 -48.80078125 89.9296875 C-49.49123535 91.05084961 -50.18168945 92.17201172 -50.89306641 93.32714844 C-53.00737975 96.76123597 -55.11911235 100.19690643 -57.23046875 103.6328125 C-61.14868219 110.00827278 -65.07226366 116.38040254 -69 122.75 C-69.51353027 123.58370117 -70.02706055 124.41740234 -70.55615234 125.27636719 C-83.47555847 146.22555847 -83.47555847 146.22555847 -87 149.75 C-88.71865409 149.8435919 -90.44115744 149.86744611 -92.16235352 149.86352539 C-93.26341934 149.86344986 -94.36448517 149.86337433 -95.49891663 149.86329651 C-96.6968132 149.85813522 -97.89470978 149.85297394 -99.12890625 149.84765625 C-100.34827377 149.8462413 -101.5676413 149.84482635 -102.82395935 149.84336853 C-106.7368307 149.83774967 -110.64964581 149.82519396 -114.5625 149.8125 C-117.20768147 149.80748743 -119.85286383 149.8029241 -122.49804688 149.79882812 C-128.99871726 149.78777411 -135.49935461 149.77101764 -142 149.75 C-143.10919189 145.98709106 -143.10919189 145.98709106 -142.12646484 143.85327148 C-141.65934082 143.19915283 -141.1922168 142.54503418 -140.7109375 141.87109375 C-139.92722778 140.75214722 -139.92722778 140.75214722 -139.12768555 139.6105957 C-138.54929932 138.81097412 -137.97091309 138.01135254 -137.375 137.1875 C-136.1598878 135.46112642 -134.94505131 133.73455875 -133.73046875 132.0078125 C-133.10575684 131.12899414 -132.48104492 130.25017578 -131.83740234 129.34472656 C-129.07725022 125.44691939 -126.38067184 121.50675073 -123.6875 117.5625 C-123.15938721 116.79212402 -122.63127441 116.02174805 -122.0871582 115.22802734 C-117.68632218 108.79528116 -113.37163551 102.30689805 -109.0625 95.8125 C-103.49413571 87.42299097 -97.80928387 79.13038723 -92.00585938 70.90209961 C-87.77775096 64.89560637 -83.67408596 58.81664199 -79.6171875 52.69360352 C-73.1758242 42.97923317 -66.61305011 33.34817655 -60 23.75 C-59.3495874 22.80278076 -59.3495874 22.80278076 -58.68603516 21.83642578 C-45.27967395 2.41017593 -23.77759074 -9.79961388 0 0 Z " fill="#393B40" transform="translate(276,171.25)"/>
<path d="M0 0 C0.9215538 0.00222061 1.8431076 0.00444122 2.79258728 0.00672913 C3.83359085 0.00680466 4.87459442 0.00688019 5.94714355 0.00695801 C7.07941879 0.01211929 8.21169403 0.01728058 9.37828064 0.02259827 C10.53106003 0.02401321 11.68383942 0.02542816 12.87155151 0.02688599 C16.57043503 0.03250446 20.26925903 0.0450601 23.96812439 0.05775452 C26.46877456 0.06276714 28.96942567 0.06733045 31.47007751 0.07142639 C37.61528027 0.0824799 43.76044808 0.099236 49.90562439 0.12025452 C49.91371124 1.27790817 49.9217981 2.43556183 49.93013 3.6282959 C50.00775092 14.55968428 50.09553015 25.49095063 50.19315147 36.42217922 C50.24301098 42.04148344 50.28934179 47.6607698 50.32749939 53.28016663 C50.36448303 58.70728965 50.41087815 64.1342594 50.4636879 69.56125069 C50.48216249 71.62756208 50.4972958 73.69390624 50.50896835 75.76026726 C50.5259499 78.66354304 50.55501294 81.56647307 50.58677673 84.46961975 C50.58893692 85.31623169 50.59109711 86.16284363 50.59332275 87.03511047 C50.70002823 94.71342859 51.63720849 102.56518725 55.90562439 109.12025452 C67.93093811 118.38660626 86.01759717 116.57467784 100.43296814 116.59681702 C102.56005829 116.61115767 104.68713929 116.62692008 106.81420898 116.64402771 C112.35876162 116.68551165 117.9032573 116.71076258 123.44792175 116.73152161 C132.37347382 116.76762367 141.29888642 116.8281898 150.22429085 116.89001083 C153.33819665 116.90911899 156.45206452 116.92082637 159.56600952 116.93144226 C161.45517566 116.94164416 163.34434096 116.9520012 165.23350525 116.96253967 C166.5369136 116.96410316 166.5369136 116.96410316 167.86665344 116.96569824 C173.79217938 117.0068095 173.79217938 117.0068095 174.90562439 118.12025452 C175.00645203 120.55685897 175.04535042 122.96450153 175.03843689 125.40150452 C175.03939362 126.13018738 175.04035034 126.85887024 175.04133606 127.6096344 C175.04201774 129.15305162 175.04016427 130.69647169 175.03599548 132.23988342 C175.03064701 134.61022851 175.03594081 136.98038411 175.04234314 139.35072327 C175.04168236 140.84681744 175.04040119 142.34291149 175.03843689 143.83900452 C175.04046112 144.55254089 175.04248535 145.26607727 175.04457092 146.00123596 C175.0205763 151.0053026 175.0205763 151.0053026 173.90562439 152.12025452 C172.44616927 152.22458131 170.98171439 152.25987484 169.51855469 152.26742554 C168.57029816 152.27458084 167.62204163 152.28173615 166.64505005 152.28910828 C165.59545609 152.29179718 164.54586212 152.29448608 163.46446228 152.29725647 C162.36491211 152.30382767 161.26536194 152.31039886 160.13249207 152.31716919 C156.46442092 152.336996 152.79639132 152.34859855 149.12828064 152.35853577 C147.24211942 152.36464906 147.24211942 152.36464906 145.31785393 152.37088585 C139.32597303 152.38964528 133.33411711 152.40418442 127.34221464 152.41249782 C120.48598439 152.42217092 113.63008562 152.44820348 106.77397162 152.48899871 C100.79556109 152.52331055 94.81730512 152.53468577 88.83878899 152.53870201 C86.323158 152.54351207 83.80752907 152.55496181 81.29196358 152.57374001 C27.35481862 152.95064759 27.35481862 152.95064759 8.90562439 136.12025452 C1.06561007 127.31960603 -3.21568145 115.25736029 -3.22135925 103.46357727 C-3.22417908 102.55783463 -3.2269989 101.65209198 -3.22990417 100.71890259 C-3.22686783 99.24743019 -3.22686783 99.24743019 -3.22377014 97.74623108 C-3.22552246 96.70347519 -3.22727478 95.6607193 -3.2290802 94.58636475 C-3.23347678 91.14451935 -3.23056927 87.70272543 -3.22718811 84.26087952 C-3.22786157 81.87145477 -3.22883196 79.4820301 -3.23008728 77.09260559 C-3.23156111 72.0892827 -3.22941902 67.08597767 -3.2247467 62.08265686 C-3.21903727 55.65393281 -3.22233809 49.2252504 -3.22831917 42.79652786 C-3.23192275 37.86565331 -3.23078735 32.93478872 -3.22819138 28.00391388 C-3.22752218 25.63231654 -3.22835027 23.26071831 -3.23067093 20.88912201 C-3.23319546 17.58495665 -3.22936026 14.28086003 -3.22377014 10.97669983 C-3.22579437 9.98762131 -3.2278186 8.99854279 -3.22990417 7.97949219 C-3.22708435 7.08502884 -3.22426453 6.19056549 -3.22135925 5.26899719 C-3.22098223 4.48735828 -3.2206052 3.70571938 -3.22021675 2.90039444 C-3.03450799 0.27337138 -2.62098849 0.15049149 0 0 Z " fill="#393B40" transform="translate(393.09437561035156,168.87974548339844)"/>
<path d="M0 0 C1.31109238 -0.00281982 2.62218475 -0.00563965 3.9730072 -0.00854492 C5.43965163 -0.00660031 6.90629591 -0.00455212 8.37294006 -0.00241089 C9.90676922 -0.00376488 11.44059806 -0.00554479 12.97442627 -0.00772095 C17.15206211 -0.01229598 21.32967338 -0.01050534 25.50730968 -0.00734186 C29.87060664 -0.00481816 34.23390144 -0.00715587 38.59719849 -0.00872803 C45.92707194 -0.01054989 53.25693533 -0.00814319 60.58680725 -0.00338745 C69.07043258 0.00205317 77.55403388 0.00029403 86.03765863 -0.00521386 C93.30983878 -0.00974694 100.58201169 -0.01039451 107.85419279 -0.00777519 C112.20259308 -0.00621323 116.55098207 -0.0060164 120.89938164 -0.00931168 C124.987697 -0.01219314 129.07598129 -0.01020959 133.16429329 -0.00441742 C134.6679695 -0.00309122 136.1716483 -0.00348158 137.67532349 -0.00568008 C139.72178049 -0.00839707 141.76824318 -0.00439195 143.81469727 0 C145.53558012 0.00056554 145.53558012 0.00056554 147.29122829 0.0011425 C149.97084045 0.12698364 149.97084045 0.12698364 151.97084045 1.12698364 C151.97084045 12.67698364 151.97084045 24.22698364 151.97084045 36.12698364 C134.81084045 36.45698364 117.65084045 36.78698364 99.97084045 37.12698364 C99.91025452 45.41694458 99.84966858 53.70690552 99.7872467 62.24807739 C99.7416328 68.14979544 99.69539591 74.05150601 99.64825535 79.95321178 C99.58719363 87.60820398 99.52762654 95.26319851 99.473526 102.91824341 C99.42613913 109.62259473 99.37361946 116.32688751 99.3178997 123.03117561 C99.29744122 125.59534455 99.27873408 128.15952805 99.26176643 130.72372246 C99.23779949 134.30147469 99.20773475 137.8791256 99.17616272 141.45681763 C99.17040726 142.52855728 99.16465179 143.60029694 99.15872192 144.70451355 C99.14893311 145.67351593 99.13914429 146.64251831 99.12905884 147.6408844 C99.12260629 148.48801215 99.11615374 149.3351399 99.10950565 150.20793819 C98.97084045 152.12698364 98.97084045 152.12698364 97.97084045 153.12698364 C81.14084045 153.12698364 64.31084045 153.12698364 46.97084045 153.12698364 C46.64084045 114.84698364 46.31084045 76.56698364 45.97084045 37.12698364 C28.81084045 36.79698364 11.65084045 36.46698364 -6.02915955 36.12698364 C-7.76208934 34.39405385 -7.15736001 32.16484028 -7.16810608 29.85549927 C-7.16608185 29.12008911 -7.16405762 28.38467896 -7.16197205 27.62698364 C-7.16292877 26.87610474 -7.1638855 26.12522583 -7.16487122 25.35159302 C-7.16555293 23.76109738 -7.16369926 22.17059897 -7.15953064 20.58010864 C-7.15418221 18.1373371 -7.15947589 15.69474943 -7.1658783 13.25198364 C-7.16521751 11.71031657 -7.16393635 10.16864961 -7.16197205 8.62698364 C-7.16399628 7.89157349 -7.16602051 7.15616333 -7.16810608 6.39846802 C-7.13740516 -0.19918846 -6.43484195 0.00211539 0 0 Z " fill="#3A3C41" transform="translate(554.0291595458984,167.87301635742188)"/>
<path d="M0 0 C0.99 0.33 1.98 0.66 3 1 C3.921875 2.86328125 3.921875 2.86328125 4.75 5.3125 C8.46349851 15.19633635 14.15014697 24.00073853 21 32 C21.74443359 32.88751953 21.74443359 32.88751953 22.50390625 33.79296875 C31.66148276 43.82269541 44.76237869 49.66960752 57 55 C57 55.66 57 56.32 57 57 C55.92363281 57.47308594 54.84726562 57.94617188 53.73828125 58.43359375 C29.24273547 69.42785723 15.56419337 84.04777891 4 108 C3.33593031 109.33462866 2.67058918 110.66863514 2 112 C1.34 112 0.68 112 0 112 C-0.268125 111.21238281 -0.53625 110.42476563 -0.8125 109.61328125 C-7.87429861 89.98426867 -20.36261254 73.25952311 -39.33398438 63.84130859 C-44.4953221 61.41321647 -49.72650699 59.17213461 -55 57 C-55 56.34 -55 55.68 -55 55 C-54.319375 54.75507812 -53.63875 54.51015625 -52.9375 54.2578125 C-29.93714888 45.38799624 -13.35556914 30.44118883 -3.1184082 7.93701172 C-1.95803936 5.31677866 -0.90670307 2.72010921 0 0 Z " fill="#D0D2D7" transform="translate(256,39)"/>
<path d="M0 0 C1.26465088 -0.00287018 2.52930176 -0.00574036 3.83227539 -0.00869751 C6.50210603 -0.01073608 9.17110845 -0.00673851 11.84082031 0.00732422 C15.25039235 0.02441583 18.65925579 0.01456664 22.06880188 -0.00339317 C25.33755944 -0.01688473 28.60623317 -0.0074186 31.875 0 C33.09388916 -0.00607269 34.31277832 -0.01214539 35.56860352 -0.0184021 C43.13965962 0.04432485 47.54734997 1.04007226 53.8125 5.3984375 C57.0068215 9.90806785 56.64805823 14.0450272 55.9375 19.3984375 C54.58545217 23.370078 53.19951045 24.23197331 49.63891602 26.49414062 C43.86935889 29.28243194 38.00679392 28.97195081 31.71484375 28.9296875 C30.45539444 28.9335144 29.19594513 28.93734131 27.89833069 28.94128418 C25.24439652 28.94399806 22.59195212 28.93871228 19.93823242 28.91992188 C16.55328551 28.8971091 13.16960593 28.91028635 9.78470516 28.93421173 C6.53220718 28.95221566 3.27985833 28.93957795 0.02734375 28.9296875 C-1.18011002 28.93778442 -2.38756378 28.94588135 -3.63160706 28.95422363 C-11.38903168 28.86803576 -16.28427514 28.11485091 -21.97265625 22.51953125 C-24.22173956 18.14228308 -23.64380404 13.16643693 -23.0625 8.3984375 C-18.24272259 -0.68498916 -9.04824202 -0.04507973 0 0 Z " fill="#F9F9F9" transform="translate(799.0625,201.6015625)"/>
<path d="M0 0 C0 0.33 0 0.66 0 1 C-1.546875 1.3403125 -1.546875 1.3403125 -3.125 1.6875 C-7.34408258 2.86471856 -9.81536784 5.04838971 -13 8 C-10.64175733 0.72875178 -7.4631798 -0.43056807 0 0 Z " fill="#DEDEDF" transform="translate(262,218)"/>
</svg>
