<?xml version="1.0" encoding="UTF-8"?>
<svg version="1.1" xmlns="http://www.w3.org/2000/svg" width="1280" height="225">
<path d="M0 0 C422.4 0 844.8 0 1280 0 C1280 74.25 1280 148.5 1280 225 C857.6 225 435.2 225 0 225 C0 150.75 0 76.5 0 0 Z " fill="#FEFEFE" transform="translate(0,0)"/>
<path d="M0 0 C0.66803247 -0.00297112 1.33606493 -0.00594224 2.02434081 -0.0090034 C4.26743511 -0.01768928 6.51047603 -0.01919855 8.75358582 -0.02069092 C10.36003738 -0.02531917 11.96648783 -0.03034384 13.57293701 -0.03573608 C17.9407911 -0.04886141 22.30862982 -0.05530531 26.67650056 -0.05974674 C29.40513138 -0.06267727 32.133758 -0.06678204 34.8623867 -0.07125092 C43.398957 -0.08492623 51.93551768 -0.09459271 60.47209817 -0.09845281 C70.32758683 -0.10293372 80.18293681 -0.12048303 90.03838331 -0.1494534 C97.65546256 -0.17106709 105.27250278 -0.18115692 112.88961238 -0.18249393 C117.43936949 -0.18354218 121.98899625 -0.18945438 126.53872108 -0.20731354 C130.81919483 -0.22378881 135.09944016 -0.22595241 139.37993431 -0.21717453 C140.9496662 -0.21640386 142.51941035 -0.22075084 144.08911133 -0.23063278 C146.23505349 -0.24334848 148.38018617 -0.23747831 150.52612305 -0.22705078 C151.72608823 -0.22851734 152.92605341 -0.2299839 154.16238117 -0.2314949 C160.40868779 0.47440643 164.42597795 3.45976518 168.45353699 8.14044189 C171.87401083 13.49872548 171.8870995 18.09041127 171.85758972 24.24151611 C171.86445297 25.24391327 171.87131622 26.24631042 171.87838745 27.27908325 C171.89665159 30.58457708 171.89281801 33.88959605 171.88713074 37.19512939 C171.89169305 39.49909621 171.89699877 41.80306167 171.90301514 44.10702515 C171.91194576 48.93381277 171.90952394 53.76043495 171.89958191 58.58721924 C171.88809861 64.76320042 171.90829474 70.9386093 171.93749905 77.1145153 C171.95587411 81.87242239 171.95556582 86.6301927 171.94986153 91.38812637 C171.94970844 93.66463142 171.95574224 95.94114581 171.968153 98.21761703 C171.9830835 101.40563243 171.97236954 104.59259542 171.95524597 107.78057861 C171.96974792 109.18201111 171.96974792 109.18201111 171.98454285 110.61175537 C171.91080499 117.19062244 170.65411117 122.76695086 166.00627804 127.66589165 C160.96156849 132.0504534 157.44513087 133.38825044 150.80700684 133.42132568 C150.14023664 133.42726793 149.47346645 133.43321017 148.7864911 133.43933249 C146.55346646 133.45666788 144.32065676 133.45971959 142.08757019 133.46270752 C140.4858352 133.47196678 138.88410462 133.4820165 137.28237915 133.49279785 C132.93091249 133.51902538 128.57950752 133.53193212 124.22797418 133.54081917 C121.50751624 133.546685 118.78707508 133.55489552 116.0666256 133.56382751 C107.54980877 133.59117434 99.03303039 133.61050816 90.51617271 133.6182313 C80.69450242 133.62718718 70.87338958 133.66225848 61.05188876 133.72023249 C53.45426657 133.76351768 45.85680089 133.78364264 38.25905675 133.78631353 C33.72414567 133.78840632 29.18975872 133.80014871 24.6549778 133.83595276 C20.38576404 133.86900405 16.11746574 133.87318359 11.84816933 133.85567474 C10.28612815 133.85413859 8.72403686 133.86275938 7.16212082 133.88259125 C-0.67648009 133.97623694 -7.48528202 134.03030763 -13.84197044 128.87518406 C-19.61994453 122.99466838 -20.13457197 117.71494952 -20.07991028 109.65045166 C-20.08852585 108.61864777 -20.09714142 107.58684387 -20.10601807 106.52377319 C-20.12864862 103.12620683 -20.121944 99.72946725 -20.11286926 96.33184814 C-20.1181062 93.96204891 -20.12438294 91.59225176 -20.13165283 89.22245789 C-20.1420518 84.26036762 -20.13750264 79.29856421 -20.12287903 74.33648682 C-20.1056948 67.98665936 -20.12918586 61.63773707 -20.16436863 55.2880106 C-20.18635945 50.39540137 -20.18489691 45.50300814 -20.17660332 40.61036491 C-20.17578469 38.26966293 -20.18263112 35.92894495 -20.19737434 33.58828926 C-20.21484984 30.31157387 -20.20025077 27.03647778 -20.17756653 23.75982666 C-20.18925873 22.79905716 -20.20095093 21.83828766 -20.21299744 20.84840393 C-20.12236887 14.39397661 -18.66741043 10.15139072 -14.54646301 5.14044189 C-9.77305693 0.70799339 -6.40332785 0.01588855 0 0 Z " fill="#E7E8EB" transform="translate(266.5464630126953,45.85955810546875)"/>
<path d="M0 0 C0.66803247 -0.00297112 1.33606493 -0.00594224 2.02434081 -0.0090034 C4.26743511 -0.01768928 6.51047603 -0.01919855 8.75358582 -0.02069092 C10.36003738 -0.02531917 11.96648783 -0.03034384 13.57293701 -0.03573608 C17.9407911 -0.04886141 22.30862982 -0.05530531 26.67650056 -0.05974674 C29.40513138 -0.06267727 32.133758 -0.06678204 34.8623867 -0.07125092 C43.398957 -0.08492623 51.93551768 -0.09459271 60.47209817 -0.09845281 C70.32758683 -0.10293372 80.18293681 -0.12048303 90.03838331 -0.1494534 C97.65546256 -0.17106709 105.27250278 -0.18115692 112.88961238 -0.18249393 C117.43936949 -0.18354218 121.98899625 -0.18945438 126.53872108 -0.20731354 C130.81919483 -0.22378881 135.09944016 -0.22595241 139.37993431 -0.21717453 C140.9496662 -0.21640386 142.51941035 -0.22075084 144.08911133 -0.23063278 C146.23505349 -0.24334848 148.38018617 -0.23747831 150.52612305 -0.22705078 C151.72608823 -0.22851734 152.92605341 -0.2299839 154.16238117 -0.2314949 C160.40868779 0.47440643 164.42597795 3.45976518 168.45353699 8.14044189 C171.87401083 13.49872548 171.8870995 18.09041127 171.85758972 24.24151611 C171.86445297 25.24391327 171.87131622 26.24631042 171.87838745 27.27908325 C171.89665159 30.58457708 171.89281801 33.88959605 171.88713074 37.19512939 C171.89169305 39.49909621 171.89699877 41.80306167 171.90301514 44.10702515 C171.91194576 48.93381277 171.90952394 53.76043495 171.89958191 58.58721924 C171.88809861 64.76320042 171.90829474 70.9386093 171.93749905 77.1145153 C171.95587411 81.87242239 171.95556582 86.6301927 171.94986153 91.38812637 C171.94970844 93.66463142 171.95574224 95.94114581 171.968153 98.21761703 C171.9830835 101.40563243 171.97236954 104.59259542 171.95524597 107.78057861 C171.96974792 109.18201111 171.96974792 109.18201111 171.98454285 110.61175537 C171.91080499 117.19062244 170.65411117 122.76695086 166.00627804 127.66589165 C160.96156849 132.0504534 157.44513087 133.38825044 150.80700684 133.42132568 C150.14023664 133.42726793 149.47346645 133.43321017 148.7864911 133.43933249 C146.55346646 133.45666788 144.32065676 133.45971959 142.08757019 133.46270752 C140.4858352 133.47196678 138.88410462 133.4820165 137.28237915 133.49279785 C132.93091249 133.51902538 128.57950752 133.53193212 124.22797418 133.54081917 C121.50751624 133.546685 118.78707508 133.55489552 116.0666256 133.56382751 C107.54980877 133.59117434 99.03303039 133.61050816 90.51617271 133.6182313 C80.69450242 133.62718718 70.87338958 133.66225848 61.05188876 133.72023249 C53.45426657 133.76351768 45.85680089 133.78364264 38.25905675 133.78631353 C33.72414567 133.78840632 29.18975872 133.80014871 24.6549778 133.83595276 C20.38576404 133.86900405 16.11746574 133.87318359 11.84816933 133.85567474 C10.28612815 133.85413859 8.72403686 133.86275938 7.16212082 133.88259125 C-0.67648009 133.97623694 -7.48528202 134.03030763 -13.84197044 128.87518406 C-19.61994453 122.99466838 -20.13457197 117.71494952 -20.07991028 109.65045166 C-20.08852585 108.61864777 -20.09714142 107.58684387 -20.10601807 106.52377319 C-20.12864862 103.12620683 -20.121944 99.72946725 -20.11286926 96.33184814 C-20.1181062 93.96204891 -20.12438294 91.59225176 -20.13165283 89.22245789 C-20.1420518 84.26036762 -20.13750264 79.29856421 -20.12287903 74.33648682 C-20.1056948 67.98665936 -20.12918586 61.63773707 -20.16436863 55.2880106 C-20.18635945 50.39540137 -20.18489691 45.50300814 -20.17660332 40.61036491 C-20.17578469 38.26966293 -20.18263112 35.92894495 -20.19737434 33.58828926 C-20.21484984 30.31157387 -20.20025077 27.03647778 -20.17756653 23.75982666 C-20.18925873 22.79905716 -20.20095093 21.83828766 -20.21299744 20.84840393 C-20.12236887 14.39397661 -18.66741043 10.15139072 -14.54646301 5.14044189 C-9.77305693 0.70799339 -6.40332785 0.01588855 0 0 Z M-5.54646301 15.14044189 C-5.99965529 17.02881774 -5.99965529 17.02881774 -5.92741394 19.233078 C-5.93587341 20.08973557 -5.94433289 20.94639313 -5.95304871 21.82901001 C-5.94697601 22.77088165 -5.94090332 23.7127533 -5.93464661 24.6831665 C-5.93990356 25.67350388 -5.94516052 26.66384125 -5.95057678 27.68418884 C-5.96382233 30.97054641 -5.9550218 34.25642282 -5.94490051 37.54278564 C-5.9469201 39.81960646 -5.94983056 42.09642665 -5.95359802 44.37324524 C-5.95802769 49.15076847 -5.95157017 53.9281237 -5.93757629 58.70562744 C-5.92049389 64.83729666 -5.93031579 70.9685717 -5.94829369 77.1002264 C-5.95912237 81.80388877 -5.95568919 86.50745735 -5.94791031 91.21112251 C-5.94590527 93.47221485 -5.94837817 95.73331563 -5.95534897 97.99439812 C-5.96294718 101.15260313 -5.95138128 104.31016572 -5.93464661 107.46832275 C-5.9407193 108.40817017 -5.94679199 109.34801758 -5.95304871 110.31634521 C-5.94458923 111.1758226 -5.93612976 112.03529999 -5.92741394 112.92082214 C-5.92628286 113.6676422 -5.92515179 114.41446226 -5.92398643 115.18391323 C-5.66214595 117.20185323 -5.66214595 117.20185323 -4.41366673 118.87993813 C-1.6874183 120.72036207 0.4369161 120.52116083 3.70974731 120.52812195 C5.0206987 120.53802658 6.33165009 120.54793121 7.68232727 120.55813599 C9.13853548 120.55389768 10.59474278 120.5493398 12.0509491 120.54449463 C13.58183288 120.55019576 15.11271241 120.55715902 16.64358521 120.56529236 C20.80476151 120.58326787 24.96572745 120.58204715 29.12693095 120.57634997 C32.59872354 120.57326433 36.07047535 120.57934363 39.54226214 120.58538872 C47.73171558 120.59944687 55.92106473 120.59786207 64.11051941 120.58648682 C72.56358415 120.57500497 81.01633164 120.58907934 89.46935457 120.61588329 C96.72294348 120.63802409 103.9764327 120.64468132 111.23005301 120.63880688 C115.56402877 120.63543211 119.89780117 120.63788664 124.23174858 120.65505791 C128.30711595 120.67049921 132.38201264 120.66660322 136.45736122 120.64775276 C137.95374841 120.64405897 139.45017025 120.64719837 140.94652557 120.65763855 C142.98776262 120.67079389 145.02912076 120.65692676 147.07034302 120.64164734 C148.21315703 120.64143806 149.35597105 120.64122877 150.53341579 120.64101315 C154.13406848 120.02378424 155.31561776 119.06729049 157.45353699 116.14044189 C158.04162609 114.08783107 158.04162609 114.08783107 157.95474243 111.88322449 C157.96949364 110.61935661 157.96949364 110.61935661 157.98454285 109.32995605 C157.97004089 107.95598663 157.97004089 107.95598663 157.95524597 106.55426025 C157.96064896 105.58313797 157.96605194 104.61201569 157.97161865 103.61146545 C157.98412842 100.40076241 157.96760073 97.19095202 157.94963074 93.98028564 C157.94978566 91.75116427 157.95127351 89.52204263 157.95404053 87.29292297 C157.95542549 82.62145072 157.94284887 77.95028514 157.92008972 73.27886963 C157.89168863 67.28399939 157.89444571 61.2896382 157.90717983 55.29473019 C157.91412635 50.69228244 157.90635972 46.08995288 157.89392281 41.48752022 C157.88939948 39.27667252 157.88907916 37.06581217 157.8929882 34.8549633 C157.89589074 31.76878611 157.87943958 28.68331686 157.85758972 25.597229 C157.86209137 24.67922516 157.86659302 23.76122131 157.87123108 22.81539917 C157.86132645 21.97564041 157.85142181 21.13588165 157.84121704 20.27067566 C157.83878715 19.54120193 157.83635725 18.81172819 157.83385372 18.06014919 C157.31742835 15.45341257 156.65781486 14.63220273 154.45353699 13.14044189 C151.53749326 12.68886646 151.53749326 12.68886646 148.15263367 12.76622009 C147.19028722 12.76025848 147.19028722 12.76025848 146.20849943 12.75417644 C144.05492834 12.74453832 141.90201171 12.75637997 139.74845886 12.76812744 C138.20610305 12.76569996 136.66374881 12.76198107 135.12139893 12.75706482 C130.92927632 12.74764612 126.73738679 12.75708939 122.54528236 12.77039695 C118.1624459 12.7816986 113.77962113 12.77760494 109.39677429 12.77565002 C102.03593632 12.77476664 94.67519036 12.78585669 87.31437683 12.80426025 C78.79888983 12.82542857 70.28353767 12.82893802 61.76802969 12.8226983 C53.58331105 12.81700753 45.39864 12.8226469 37.21392822 12.83387184 C33.7275403 12.83852165 30.24118144 12.83939003 26.75479126 12.837286 C22.65080668 12.83540509 18.54695972 12.8434917 14.44300652 12.85934639 C12.93491625 12.86359611 11.42681203 12.86443518 9.91871834 12.86165619 C7.86380696 12.85844351 5.80930915 12.86749262 3.75444031 12.87974548 C2.60333015 12.88179835 1.45222 12.88385122 0.26622772 12.8859663 C-2.75330061 12.93349345 -2.75330061 12.93349345 -5.54646301 15.14044189 Z " fill="#44464C" transform="translate(266.5464630126953,45.85955810546875)"/>
<path d="M0 0 C47.53208556 0 47.53208556 0 56.55859375 8.4609375 C66.35060465 18.86342289 67.49893932 33.5063822 67.1875 47.13671875 C66.62165935 58.79539382 64.15504026 70.70850599 55.8515625 79.34765625 C41.08830113 92.52246545 17.16416983 87 0 87 C0 58.29 0 29.58 0 0 Z " fill="#43464C" transform="translate(273,69)"/>
<path d="M0 0 C7.074375 -0.061875 14.14875 -0.12375 21.4375 -0.1875 C24.76026001 -0.22846802 24.76026001 -0.22846802 28.15014648 -0.27026367 C29.93212338 -0.27903643 31.71410636 -0.28667849 33.49609375 -0.29296875 C34.40008911 -0.30831665 35.30408447 -0.32366455 36.23547363 -0.33947754 C43.76055274 -0.34253527 50.7266405 0.6346839 56.4375 5.875 C61.63309736 11.29263144 61.71538854 18.02060135 61.65234375 25.1796875 C60.57616689 31.48208854 56.91066873 35.13813303 52 39 C49.703125 40.26171875 49.703125 40.26171875 48 41 C48.73605469 41.35191406 49.47210938 41.70382813 50.23046875 42.06640625 C56.92981291 45.4559027 62.07763651 48.36590323 64.62109375 55.8203125 C65.62244186 61.5806449 65.37801106 68.21335541 62.76953125 73.48828125 C56.97801766 81.39392062 50.28456246 84.67885939 41 87 C27.47 87 13.94 87 0 87 C0 58.29 0 29.58 0 0 Z " fill="#44474D" transform="translate(349,69)"/>
<path d="M0 0 C44.86046512 0 44.86046512 0 52.546875 7.51171875 C56.7628346 12.97114958 56.55951925 18.73367576 56.56640625 25.4140625 C55.73357595 30.68673983 53.39458469 33.77548662 49.4375 37.25 C47.64897486 38.53406933 45.83195789 39.77869474 44 41 C44.85078125 41.92425781 45.7015625 42.84851563 46.578125 43.80078125 C50.63359015 48.53414289 53.64547186 53.80274946 56.75 59.1875 C57.32621094 60.17169922 57.90242188 61.15589844 58.49609375 62.16992188 C60.76954456 66.06764465 63.02333849 69.94174744 65 74 C58.07377312 74.79347366 50.85565878 75.58282602 44 74 C40.26461006 70.86166009 38.6684865 67.40586684 36.83789062 62.93017578 C35.3660971 59.539733 33.44376595 56.44832191 31.5 53.3125 C31.16774414 52.7129248 30.83548828 52.11334961 30.49316406 51.49560547 C27.22309194 46.08549091 26.02154309 46.75538577 19 45 C19 54.57 19 64.14 19 74 C12.73 74 6.46 74 0 74 C0 49.58 0 25.16 0 0 Z " fill="#0B0C0D" transform="translate(968,82)"/>
<path d="M0 0 C17 0 17 0 21.73828125 4.03125 C22.986878 5.81548098 24.17724954 7.64159197 25.3125 9.5 C26.62232283 11.42192476 27.9322195 13.34379919 29.2421875 15.265625 C29.86834961 16.22919922 30.49451172 17.19277344 31.13964844 18.18554688 C33.89075305 22.34758545 36.90690941 26.28964761 39.9375 30.25 C40.90619578 31.54594318 41.87377041 32.84272572 42.83984375 34.140625 C44.71974508 36.76573423 44.71974508 36.76573423 46 38 C46.33 25.46 46.66 12.92 47 0 C52.28 0 57.56 0 63 0 C63 24.42 63 48.84 63 74 C50 74 50 74 47.10546875 71.89453125 C46.47253906 70.87746094 45.83960938 69.86039062 45.1875 68.8125 C44.39765414 67.62552018 43.60442287 66.44078908 42.80859375 65.2578125 C42.37788574 64.59040039 41.94717773 63.92298828 41.50341797 63.23535156 C38.4714372 58.72726194 35.06963857 54.48539138 31.75 50.1875 C29.77344496 47.59895721 27.80176145 45.00684198 25.83398438 42.41162109 C24.62388899 40.82039077 23.40656824 39.23462601 22.18164062 37.65478516 C21.63185547 36.93983887 21.08207031 36.22489258 20.515625 35.48828125 C20.02868164 34.86091064 19.54173828 34.23354004 19.04003906 33.5871582 C18 32 18 32 18 30 C17.34 30 16.68 30 16 30 C16 44.52 16 59.04 16 74 C10.72 74 5.44 74 0 74 C0 49.58 0 25.16 0 0 Z " fill="#0B0C0D" transform="translate(753,82)"/>
<path d="M0 0 C6.27 0 12.54 0 19 0 C19 9.57 19 19.14 19 29 C27.58 29 36.16 29 45 29 C45 19.43 45 9.86 45 0 C51.27 0 57.54 0 64 0 C64 24.42 64 48.84 64 74 C57.73 74 51.46 74 45 74 C45 64.1 45 54.2 45 44 C36.42 44 27.84 44 19 44 C19 53.9 19 63.8 19 74 C12.73 74 6.46 74 0 74 C0 49.58 0 25.16 0 0 Z " fill="#0C0D0E" transform="translate(610,82)"/>
<path d="M0 0 C6.27 0 12.54 0 19 0 C19.495 14.355 19.495 14.355 20 29 C25.44382811 22.34643231 30.82059097 15.72319237 36 8.875 C37.12437456 7.39275453 38.24934135 5.91095803 39.375 4.4296875 C39.85710938 3.79272949 40.33921875 3.15577148 40.8359375 2.49951172 C42 1 42 1 43 0 C44.4887186 -0.08669432 45.981445 -0.10703494 47.47265625 -0.09765625 C48.37177734 -0.09443359 49.27089844 -0.09121094 50.19726562 -0.08789062 C51.61555664 -0.07532227 51.61555664 -0.07532227 53.0625 -0.0625 C54.01189453 -0.05798828 54.96128906 -0.05347656 55.93945312 -0.04882812 C58.29303065 -0.0370011 60.64648477 -0.02052025 63 0 C59.00668624 5.40503707 54.88465317 10.67790406 50.625 15.875 C49.48798818 17.26799 48.35126928 18.66121915 47.21484375 20.0546875 C46.3947583 21.05967285 46.3947583 21.05967285 45.55810547 22.08496094 C42.34459924 26.03462293 39.17028368 30.01559514 36 34 C37.45543712 37.20923885 39.26413709 39.72056003 41.5 42.4375 C46.45197205 48.53567897 51.24022365 54.75177125 56 61 C56.65427979 61.85803223 56.65427979 61.85803223 57.32177734 62.73339844 C58.5927532 64.4031766 59.85969607 66.07592114 61.125 67.75 C61.87007812 68.73484375 62.61515625 69.7196875 63.3828125 70.734375 C65 73 65 73 65 74 C45.90582198 76.52388728 45.90582198 76.52388728 39.89404297 72.63916016 C36.26165249 69.00065968 33.76748165 64.6539491 31.28076172 60.18603516 C29.24636535 56.7136781 26.75516132 53.63955598 24.25 50.5 C22.8475 48.685 21.445 46.87 20 45 C19.67 54.57 19.34 64.14 19 74 C12.73 74 6.46 74 0 74 C0 49.58 0 25.16 0 0 Z " fill="#0B0C0D" transform="translate(831,82)"/>
<path d="M0 0 C17.16 0 34.32 0 52 0 C52 4.95 52 9.9 52 15 C41.44 15 30.88 15 20 15 C20 19.62 20 24.24 20 29 C28.25 29 36.5 29 45 29 C45 33.95 45 38.9 45 44 C36.75 44 28.5 44 20 44 C20 48.95 20 53.9 20 59 C31.22 59 42.44 59 54 59 C54 63.95 54 68.9 54 74 C36.18 74 18.36 74 0 74 C0 49.58 0 25.16 0 0 Z " fill="#0F1011" transform="translate(903,82)"/>
<path d="M0 0 C16.83 0 33.66 0 51 0 C51 4.95 51 9.9 51 15 C40.44 15 29.88 15 19 15 C19 19.62 19 24.24 19 29 C27.25 29 35.5 29 44 29 C44 33.95 44 38.9 44 44 C35.75 44 27.5 44 19 44 C19 48.95 19 53.9 19 59 C30.55 59 42.1 59 54 59 C53.67 63.95 53.34 68.9 53 74 C35.51 74 18.02 74 0 74 C0 49.58 0 25.16 0 0 Z " fill="#0C0D0E" transform="translate(689,82)"/>
<path d="M0 0 C0 5.28 0 10.56 0 16 C-8.625 14.125 -8.625 14.125 -12 13 C-14.1649902 12.90514218 -16.33293823 12.87011923 -18.5 12.875 C-19.6446875 12.87242188 -20.789375 12.86984375 -21.96875 12.8671875 C-25.04679859 12.86315592 -25.04679859 12.86315592 -28 14 C-28.66923762 17.28743547 -28.66923762 17.28743547 -28 21 C-24.38364125 24.63661847 -19.17667865 26.3903644 -14.5625 28.4375 C0.273719 35.07258683 0.273719 35.07258683 3.40625 42.671875 C5.46413568 50.74095307 4.54181547 57.74840621 0.41015625 64.94140625 C-3.44729591 70.57264528 -8.60023852 72.40940895 -15 74 C-18.65712793 74.42484529 -22.25878106 74.46558182 -25.9375 74.4375 C-26.86240234 74.45748047 -27.78730469 74.47746094 -28.74023438 74.49804688 C-35.67859197 74.49318468 -40.69681145 72.88586602 -47 70 C-47 65.05 -47 60.1 -47 55 C-43 56 -43 56 -41.1328125 56.75390625 C-33.15635004 59.96621701 -24.29751805 60.07437951 -16 58 C-16 55.03 -16 52.06 -16 49 C-17.57587891 48.23816406 -17.57587891 48.23816406 -19.18359375 47.4609375 C-40.3893329 37.10811178 -40.3893329 37.10811178 -45 30 C-47.04694001 23.85917997 -47.26441611 15.52567479 -45.05859375 9.375 C-41.36748519 3.26557894 -36.51505684 -0.40611054 -29.70703125 -2.4609375 C-19.4955657 -4.49438951 -9.90211524 -2.64056406 0 0 Z " fill="#0D0E0F" transform="translate(532,83)"/>
<path d="M0 0 C0 4.95 0 9.9 0 15 C-1.546875 14.67 -3.09375 14.34 -4.6875 14 C-12.34209995 12.63522637 -20.4080192 11.32787101 -27.625 14.6875 C-33.33275724 20.2450531 -34.11260286 25.73685712 -34.24145508 33.38427734 C-34.52927701 44.09085012 -34.52927701 44.09085012 -31 54 C-25.481769 59.38364 -21.24759385 59.26521195 -13.77734375 59.234375 C-8.50936644 58.90750981 -4.01097113 57.62517982 1 56 C1 60.62 1 65.24 1 70 C-10.63852709 75.30579911 -20.92717711 76.91152721 -33.50390625 72.96875 C-42.51338112 69.472115 -49.35743285 63.27048747 -53.4375 54.4375 C-57.04435299 43.30465939 -57.22094671 26.84401591 -52.25390625 16.1484375 C-51.84011719 15.43945312 -51.42632813 14.73046875 -51 14 C-50.57589844 13.27039063 -50.15179687 12.54078125 -49.71484375 11.7890625 C-44.75343213 4.35385511 -37.38319594 -0.29379548 -28.79296875 -2.53125 C-18.7288334 -4.22033565 -9.69568672 -2.83776197 0 0 Z " fill="#0D0E0F" transform="translate(598,83)"/>
<path d="M0 0 C8.20014533 0 13.80817887 0.01634111 19.875 5.6875 C24.97174803 13.63243075 25.52132897 20.49322611 25.5 29.75 C25.52835937 30.8534375 25.55671875 31.956875 25.5859375 33.09375 C25.60474507 41.10577572 24.23845236 48.09201055 20 55 C13.59044208 61.01961302 9.25008872 60 0 60 C0 40.2 0 20.4 0 0 Z " fill="#E8EAED" transform="translate(294,82)"/>
<path d="M0 0 C2.536875 -0.103125 5.07375 -0.20625 7.6875 -0.3125 C8.47729248 -0.35802002 9.26708496 -0.40354004 10.08081055 -0.45043945 C14.07479872 -0.52871334 15.63969754 -0.26302552 18.98046875 2.17578125 C21.79848252 6.11663996 21.70537339 8.69281648 21.49609375 13.3984375 C20.77132685 17.19918362 19.1204609 18.82293426 16 21 C10.83608171 22.7213061 5.40708764 22.05353552 0 22 C0 14.74 0 7.48 0 0 Z " fill="#E9EAED" transform="translate(370,120)"/>
<path d="M0 0 C7.45672819 -0.36823349 11.93872286 -0.48007441 18 4 C19.72869779 7.45739557 19.48966895 11.21975568 19 15 C17.20606332 17.87029869 16.01736724 19.49131638 13 21 C8.66396021 21.1393329 4.33919329 21.04254111 0 21 C0 14.07 0 7.14 0 0 Z " fill="#E8E9EC" transform="translate(370,82)"/>
<path d="M0 0 C13.28632017 -0.36906445 13.28632017 -0.36906445 16.39453125 1.23828125 C19.23481098 4.35498723 19.18596135 7.92315497 19 12 C17.8125 15 17.8125 15 16 17 C10.97287155 18.81250209 5.23856823 18.05694096 0 18 C0 12.06 0 6.12 0 0 Z " fill="#F2F2F2" transform="translate(987,96)"/>
</svg>
