<?xml version="1.0" encoding="UTF-8"?>
<svg version="1.1" xmlns="http://www.w3.org/2000/svg" width="2000" height="825">
<path d="M0 0 C660 0 1320 0 2000 0 C2000 272.25 2000 544.5 2000 825 C1340 825 680 825 0 825 C0 552.75 0 280.5 0 0 Z " fill="#FEFEFE" transform="translate(0,0)"/>
<path d="M0 0 C6.14887207 0.01138059 12.29757071 0.00460169 18.44643688 -0.00686741 C42.91489193 -0.04566339 67.35423774 0.15976498 91.80566406 1.12402344 C93.2841363 1.17946697 93.2841363 1.17946697 94.79247665 1.23603058 C114.03764382 1.97968662 133.0064313 4.20650814 152.01269531 7.26074219 C152.80474365 7.3871106 153.59679199 7.513479 154.4128418 7.64367676 C156.86223988 8.03630902 159.31069054 8.43431046 161.75878906 8.83496094 C162.50861557 8.95657089 163.25844208 9.07818085 164.0309906 9.20347595 C169.55628214 10.12323694 174.71421883 11.48923946 180.01269531 13.26074219 C181.16382813 13.5971875 182.31496094 13.93363281 183.50097656 14.28027344 C191.24565083 16.54927058 198.74519189 19.22842775 206.20019531 22.32324219 C207.00191162 22.65155029 207.80362793 22.9798584 208.62963867 23.31811523 C214.49145637 25.80899904 218.95696456 28.76734724 223.07519531 33.69824219 C225.67536017 36.75329549 228.36120357 39.69485543 231.12670898 42.60107422 C246.14399371 58.47489498 258.05638492 76.51934885 268.93212891 95.39892578 C269.83391251 96.95269934 270.75845085 98.49323794 271.68847656 100.03027344 C274.65748606 105.03117144 276.12178008 109.52601598 277.01269531 115.26074219 C277.19703125 116.27007812 277.38136719 117.27941406 277.57128906 118.31933594 C279.553729 130.58311956 279.01269531 141.40083992 279.01269531 154.26074219 C221.59269531 154.26074219 164.17269531 154.26074219 105.01269531 154.26074219 C103.69269531 148.65074219 102.37269531 143.04074219 101.01269531 137.26074219 C94.15232358 124.19336745 82.84967841 116.83214939 69.20019531 112.13574219 C47.56125433 106.13763082 25.49286165 106.82720965 3.24627686 106.93817139 C-0.39231358 106.95157634 -4.03078099 106.94634309 -7.66938496 106.94129562 C-34.39000603 106.90829513 -34.39000603 106.90829513 -60.98730469 109.26074219 C-62.22246826 109.41615479 -63.45763184 109.57156738 -64.73022461 109.73168945 C-83.86355436 112.25023401 -105.34834495 117.54143297 -117.98730469 133.26074219 C-129.30938392 149.20463637 -131.6914692 168.26321711 -132.53100586 187.29296875 C-132.57318583 188.243568 -132.61536581 189.19416725 -132.65882397 190.17357254 C-133.11886724 201.34089448 -133.19030803 212.50717827 -133.22558594 223.68261719 C-133.22966146 224.7994413 -133.23373699 225.91626541 -133.23793602 227.06693268 C-133.2585765 232.97137755 -133.27297495 238.87580065 -133.2824707 244.78027344 C-133.29353272 250.78806348 -133.32799568 256.79548311 -133.3676424 262.80314255 C-133.39409527 267.50853034 -133.40218725 272.21383307 -133.40575218 276.91928864 C-133.41053859 279.1306943 -133.42191563 281.34209835 -133.44079018 283.55342865 C-133.6640634 311.42476745 -131.92724417 341.96175172 -111.33886719 362.94042969 C-90.56760493 381.76133868 -58.14945036 383.60116314 -31.45214844 383.52636719 C-29.71733038 383.52771988 -27.9825127 383.52966539 -26.24769592 383.53216553 C-22.63994684 383.53508765 -19.03229785 383.53091369 -15.42456055 383.52148438 C-10.84375774 383.51008301 -6.26318926 383.51667239 -1.68239498 383.5286293 C1.89108487 383.53591999 5.46451084 383.53352737 9.03799248 383.52837372 C10.72536689 383.52705751 12.4127465 383.52861206 14.10011482 383.53333282 C24.59219338 383.55626249 34.64591122 382.94072478 45.01269531 381.26074219 C46.47794395 381.02935295 46.47794395 381.02935295 47.97279358 380.79328918 C58.75383053 379.04924299 68.45876364 376.73145825 78.01269531 371.26074219 C79.36427734 370.49117188 79.36427734 370.49117188 80.74316406 369.70605469 C92.1182953 362.51270392 97.42414667 351.91802616 101.01269531 339.26074219 C103.63188044 327.47440913 104.12077989 315.30160032 105.01269531 303.26074219 C66.07269531 303.26074219 27.13269531 303.26074219 -12.98730469 303.26074219 C-12.98730469 273.89074219 -12.98730469 244.52074219 -12.98730469 214.26074219 C83.37269531 214.26074219 179.73269531 214.26074219 279.01269531 214.26074219 C279.01269531 318.53338538 279.01269531 318.53338538 265.20019531 343.26074219 C264.69230469 344.17879639 264.18441406 345.09685059 263.66113281 346.04272461 C252.75293974 365.60743504 240.51969308 384.01571415 226.46191406 401.45996094 C224.91906154 403.37709035 223.38780972 405.30317735 221.85644531 407.22949219 C215.3554626 415.36471865 208.60159179 423.15196067 201.45361328 430.72265625 C199.55244655 432.75202772 197.68737428 434.81290433 195.82104492 436.87426758 C188.36155772 445.09896665 180.69092809 453.10237469 172.23925781 460.31933594 C169.27311932 462.90560056 166.39741647 465.58438707 163.51269531 468.26074219 C162.38393429 469.29996245 161.25503115 470.33902837 160.12597656 471.37792969 C158.28806721 473.07148323 156.47660925 474.77976688 154.68066406 476.51855469 C154.02710938 477.13472656 153.37355469 477.75089844 152.70019531 478.38574219 C152.1678125 478.90394531 151.63542969 479.42214844 151.08691406 479.95605469 C145.34928465 483.56503439 137.58360942 483.79909252 130.98144531 484.47949219 C130.01619934 484.58240067 129.05095337 484.68530914 128.05645752 484.79133606 C42.98227954 493.71361999 -46.93404277 495.58067587 -131.98730469 485.26074219 C-133.33119708 485.10139063 -134.67511054 484.94221666 -136.01904297 484.78320312 C-140.11514179 484.29501704 -144.20779268 483.78194594 -148.29980469 483.26074219 C-150.14300293 483.02991943 -150.14300293 483.02991943 -152.0234375 482.79443359 C-158.17819336 481.96929614 -163.94558233 480.83954005 -169.85375977 478.92529297 C-172.5979114 478.07055207 -175.3321936 477.602089 -178.17480469 477.19824219 C-182.69661303 476.54873483 -186.4904486 475.54555821 -190.98730469 474.26074219 C-190.98730469 434.66074219 -190.98730469 395.06074219 -190.98730469 354.26074219 C-229.26730469 354.26074219 -267.54730469 354.26074219 -306.98730469 354.26074219 C-309.3906803 339.84048849 -310.13871021 325.94313668 -310.1484375 311.38330078 C-310.15307951 309.73882947 -310.15810597 308.09435921 -310.16348267 306.44989014 C-310.1764735 302.02389797 -310.18302496 297.59792087 -310.18749332 293.17191267 C-310.19044507 290.39470316 -310.19455353 287.61749757 -310.1989975 284.84029007 C-310.21263582 276.11578309 -310.22232096 267.39128532 -310.22619939 258.66676843 C-310.23067469 248.66041975 -310.24821365 238.65420803 -310.27719998 228.64790094 C-310.29893977 220.86817448 -310.30891014 213.08848622 -310.31024051 205.30872977 C-310.31127955 200.68267807 -310.31699254 196.05675574 -310.33506012 191.43073654 C-310.46919907 155.05179264 -310.46919907 155.05179264 -306.98730469 138.26074219 C-306.61587397 136.16751194 -306.24668221 134.07388012 -305.88183594 131.97949219 C-298.50272445 95.13846862 -278.74007461 63.73630853 -247.50415039 42.42773438 C-234.52793087 33.84409073 -220.73878116 27.15267305 -205.98730469 22.26074219 C-205.23449219 22.0084082 -204.48167969 21.75607422 -203.70605469 21.49609375 C-186.24001723 15.68605086 -168.84701994 11.7067696 -150.69433594 8.71777344 C-148.34811203 8.32165771 -146.0115726 7.89608575 -143.67480469 7.44824219 C-121.40563858 3.25917923 -98.52792663 2.16791647 -75.92871094 1.18652344 C-74.93495327 1.14324669 -73.9411956 1.09996994 -72.91732407 1.05538177 C-48.61573192 0.02763384 -24.31974214 -0.04537827 0 0 Z " fill="#464646" transform="translate(1508.9873046875,91.7392578125)"/>
<path d="M0 0 C56.43 0 112.86 0 171 0 C171 60.06 171 120.12 171 182 C188.16 182 205.32 182 223 182 C223.66 180.68 224.32 179.36 225 178 C226.46118164 176.23583984 226.46118164 176.23583984 228.16015625 174.4609375 C228.7843042 173.80327393 229.40845215 173.14561035 230.05151367 172.46801758 C230.71513916 171.77732178 231.37876465 171.08662598 232.0625 170.375 C233.43563664 168.92908858 234.80803573 167.48247636 236.1796875 166.03515625 C236.84194336 165.33793457 237.50419922 164.64071289 238.18652344 163.92236328 C241.10385853 160.8298624 243.93121495 157.65993805 246.76171875 154.48828125 C249.48014935 151.46622141 252.2382068 148.48239197 255 145.5 C259.27985623 140.87657425 263.51758799 136.21907453 267.72265625 131.52734375 C270.7652294 128.150766 273.84118744 124.80519519 276.91650391 121.45849609 C279.77616612 118.34348908 282.61523037 115.21139758 285.4375 112.0625 C288.92448281 108.17629197 292.45340803 104.33165556 296 100.5 C301.58609842 94.46264213 307.16524739 88.41621259 312.55859375 82.20507812 C316.72570251 77.40729707 321.00800445 72.74098843 325.375 68.125 C330.23114096 62.96939801 335.0388534 57.78158778 339.75390625 52.49609375 C342.51472214 49.42798705 345.31904369 46.4017755 348.125 43.375 C351.87399329 39.32804264 355.56452756 35.2450856 359.17578125 31.07421875 C364.34357535 25.19820447 369.70330161 19.48720237 375.01171875 13.73828125 C375.50188477 13.2062207 375.99205078 12.67416016 376.49707031 12.12597656 C377.86002917 10.64658868 379.22487991 9.16894443 380.58984375 7.69140625 C383.02717637 5.12805978 383.02717637 5.12805978 384.62704086 2.36936665 C387.40998983 -0.40936913 389.0996858 -0.59293811 392.96033311 -0.64540654 C394.15683193 -0.62356023 394.15683193 -0.62356023 395.37750244 -0.60127258 C396.23029903 -0.60554471 397.08309562 -0.60981683 397.96173453 -0.61421841 C400.82430494 -0.62246579 403.68541578 -0.59493495 406.54785156 -0.56762695 C408.59767624 -0.56621686 410.64750345 -0.5670077 412.69732666 -0.56983948 C418.26738045 -0.57127654 423.83689802 -0.54183945 429.40682697 -0.50696969 C435.22575997 -0.47575468 441.04470469 -0.47277928 446.8637085 -0.46684265 C457.88514312 -0.45128996 468.90633035 -0.41024203 479.92765594 -0.3600952 C492.47402887 -0.30424623 505.0204135 -0.2767264 517.56687975 -0.25161803 C543.3780571 -0.19932757 569.1890147 -0.11135742 595 0 C595 0.66 595 1.32 595 2 C593.35546875 3.5859375 593.35546875 3.5859375 591.1875 5.375 C588.93749143 7.23566282 587.09649715 8.86872703 585.36328125 11.2265625 C584.91339844 11.81179687 584.46351563 12.39703125 584 13 C583.34 13 582.68 13 582 13 C581.62524536 13.8647998 581.62524536 13.8647998 581.24291992 14.74707031 C579.82641968 17.31463351 578.21078033 18.99989768 576.11328125 21.046875 C575.33919922 21.81 574.56511719 22.573125 573.76757812 23.359375 C572.95740234 24.14828125 572.14722656 24.9371875 571.3125 25.75 C566.24053552 30.71035646 561.32045271 35.69029469 556.69995117 41.07519531 C553.78865591 44.37156927 550.63878821 47.42226051 547.5 50.5 C543.13252485 54.82091697 538.8936608 59.14700523 534.93359375 63.84765625 C531.53303059 67.63292958 527.87131622 71.16805265 524.23608398 74.72680664 C521.21733074 77.70140993 518.32896797 80.72563696 515.5625 83.9375 C511.28755992 88.88994174 506.62857657 93.42177931 501.9609375 98 C498.00961134 101.90555791 494.27776101 105.91589878 490.65234375 110.125 C488.22503715 112.87939047 485.6275784 115.43851326 483 118 C479.77589836 121.18055276 476.60923118 124.34719093 473.6875 127.8125 C470.18553184 131.93704028 466.34134803 135.69570826 462.5 139.5 C456.8249973 145.08544409 456.8249973 145.08544409 451.5 151 C447.50285581 155.74660873 443.01876691 160.03021627 438.59179688 164.37109375 C435.45531925 167.46505395 432.43656544 170.5970148 429.5625 173.9375 C425.09317357 179.12071209 420.19613896 183.85209251 415.31640625 188.64453125 C411.25126937 192.66556176 407.39479588 196.7774201 403.66601562 201.11132812 C401.07800895 204.04521142 398.29694245 206.76717085 395.5 209.5 C391.45297682 213.49665717 387.57710877 217.53732722 383.8984375 221.87890625 C379.49509621 226.7986888 374.70179183 231.36769278 370 236 C371.32900341 238.95499307 372.77299793 241.01274778 375.08203125 243.27734375 C375.68466797 243.87353516 376.28730469 244.46972656 376.90820312 245.08398438 C377.53662109 245.69564453 378.16503906 246.30730469 378.8125 246.9375 C379.73772461 247.84918945 379.73772461 247.84918945 380.68164062 248.77929688 C381.84510046 249.925447 383.01061819 251.0695151 384.17895508 252.21069336 C385.92768339 253.92894377 387.66239078 255.66058276 389.39538229 257.39467764 C391.29546111 259.29559086 393.19665621 261.19538421 395.09791279 263.09511948 C395.88466524 263.88125523 396.6714177 264.66739099 397.48201114 265.47734904 C398.3351284 266.32978419 399.18824566 267.18221933 400.06721497 268.06048584 C401.96947078 269.96127466 403.87172361 271.86206647 405.77397156 273.76286316 C406.27641543 274.26492281 406.7788593 274.76698245 407.29652875 275.28425603 C430.41511501 298.38520778 453.53114687 321.48871388 476.64523332 344.59416799 C479.98116185 347.92884593 483.31711225 351.26350199 486.65307617 354.59814453 C487.31715576 355.26196181 487.98123534 355.92577908 488.66543856 356.60971203 C499.44666446 367.38657542 510.22965391 378.16167263 521.01328353 388.93613073 C532.08036769 399.9938806 543.1455679 411.05351303 554.20900267 422.11491418 C561.03673646 428.94127307 567.86595343 435.76614128 574.69705077 442.58913431 C579.37087894 447.25769778 584.0428847 451.92807976 588.71342943 456.59992805 C591.41187448 459.29901676 594.1111453 461.99726655 596.81257439 464.69336891 C599.73363934 467.60871561 602.65087007 470.52786812 605.56770325 473.44744873 C606.43197412 474.30880676 607.29624499 475.17016479 608.18670589 476.05762458 C608.96041961 476.83332935 609.73413333 477.60903411 610.53129292 478.40824509 C611.20600362 479.08257607 611.88071433 479.75690706 612.57587081 480.45167232 C614 482 614 482 614 483 C586.41853513 483.28051796 558.83728452 483.4920279 531.25467968 483.62174606 C518.44705157 483.68358202 505.64031058 483.76786083 492.83325195 483.90527344 C481.66849283 484.02500782 470.50437623 484.10232834 459.33899289 484.12906194 C453.42844002 484.14468603 447.519725 484.18131054 441.60976219 484.26876068 C436.04172414 484.35048045 430.47627275 484.37528808 424.90769196 484.35729218 C422.86905903 484.36058196 420.83033581 484.38430205 418.79222298 484.4304657 C402.60508809 484.77898986 402.60508809 484.77898986 397.39577675 480.36051178 C394.54435306 477.48725957 392.29267616 474.32755766 390 471 C388.88288644 469.79573873 387.73733754 468.6161819 386.546875 467.484375 C381.80349469 462.84699201 377.20485839 458.18218634 372.90625 453.125 C369.88136507 449.75299713 366.63087211 446.61085219 363.40893555 443.4284668 C360.00897432 440.05415355 356.81229108 436.5750282 353.70703125 432.92578125 C351.00656931 429.87926469 348.07675615 427.06898839 345.1796875 424.2109375 C343.23766452 422.24107189 341.41938329 420.22846367 339.625 418.125 C336.73785181 414.75442235 333.65752622 411.61496479 330.5 408.5 C327.40507759 405.44662714 324.38065683 402.37676268 321.5625 399.0625 C318.54647173 395.523209 315.30552099 392.26505555 312 389 C308.12271626 385.17012306 304.4375639 381.27948694 300.90625 377.125 C297.8799847 373.75145836 294.62789294 370.60796464 291.40454102 367.42407227 C288.04939106 364.0941767 284.90274548 360.66068601 281.83984375 357.05859375 C279.04439912 353.93078203 276.03822988 351.01746403 273.05322266 348.07275391 C269.75941323 344.80619419 266.6851059 341.42097135 263.67578125 337.89453125 C261.86022622 335.84198069 259.95240464 333.92253994 258 332 C255.46185201 329.50060236 253.05871697 326.96218208 250.75 324.25 C247.18261138 320.09350134 243.31261214 316.28404815 239.41870117 312.43823242 C235.98122111 309.02678155 232.71224105 305.52899134 229.59765625 301.81640625 C227.5092305 299.44203468 225.23597434 297.23597434 223 295 C205.84 294.67 188.68 294.34 171 294 C171 356.37 171 418.74 171 483 C114.57 483 58.14 483 0 483 C0 323.61 0 164.22 0 0 Z " fill="#464646" transform="translate(212,100)"/>
<path d="M0 0 C56.76 0 113.52 0 172 0 C172 122.1 172 244.2 172 370 C260.44 370 348.88 370 440 370 C440 406.96 440 443.92 440 482 C294.8 482 149.6 482 0 482 C0 322.94 0 163.88 0 0 Z " fill="#464646" transform="translate(851,101)"/>
<path d="M0 0 C11.158125 -0.04125 22.31625 -0.0825 33.8125 -0.125 C37.31464111 -0.14320801 40.81678223 -0.16141602 44.42504883 -0.18017578 C48.75524902 -0.18920898 48.75524902 -0.18920898 50.79277039 -0.19088745 C52.19313331 -0.19392614 53.59349155 -0.20089144 54.99382019 -0.21115112 C80.67851404 -0.38966047 80.67851404 -0.38966047 89.71875 7.5 C97.1639574 15.38316078 97.46111935 24.63231407 97.3125 35 C97.31572266 36.1240625 97.31894531 37.248125 97.32226562 38.40625 C97.26055302 48.01097495 96.72390405 57.55327626 90 65 C86.43548177 67.47149213 83.36518251 69 79 69 C79 69.66 79 70.32 79 71 C79.845625 71.04125 80.69125 71.0825 81.5625 71.125 C86.08086385 72.27512898 89.11908956 74.32387457 92 78 C94.75995167 84.13772036 95.41389067 89.06866107 95.29296875 95.75 C95.28872391 96.64871826 95.28447906 97.54743652 95.28010559 98.47338867 C95.26344584 101.31591012 95.22581832 104.15769645 95.1875 107 C95.17243671 108.93879177 95.15875119 110.87759477 95.14648438 112.81640625 C95.1135841 117.54454979 95.06189115 122.27215069 95 127 C90.38 127 85.76 127 81 127 C80.95101562 124.69902344 80.90203125 122.39804687 80.8515625 120.02734375 C80.79743415 117.7799675 80.7401735 115.53269116 80.68261719 113.28540039 C80.64451516 111.73274284 80.60963072 110.18000267 80.578125 108.62719727 C80.53206315 106.38528053 80.47414122 104.14392355 80.4140625 101.90234375 C80.40251129 101.21663803 80.39096008 100.53093231 80.37905884 99.82444763 C80.18155088 93.26238829 78.87905609 87.37100074 75 82 C70.90513804 78.301415 67.15436285 77.88611782 61.77246094 77.79467773 C60.73168396 77.77473251 59.69090698 77.75478729 58.61859131 77.73423767 C57.50179993 77.71752518 56.38500854 77.70081268 55.234375 77.68359375 C54.08584045 77.66281265 52.93730591 77.64203156 51.75396729 77.62062073 C48.08603889 77.55525007 44.41803907 77.49629806 40.75 77.4375 C38.26301346 77.39430293 35.77603413 77.35068825 33.2890625 77.30664062 C27.19278047 77.19879585 21.09644401 77.09962895 15 77 C15 93.83 15 110.66 15 128 C10.05 128 5.1 128 0 128 C0 85.76 0 43.52 0 0 Z " fill="#4C4C4C" transform="translate(417,613)"/>
<path d="M0 0 C11.67375 -0.0825 23.3475 -0.165 35.375 -0.25 C40.87679932 -0.30462402 40.87679932 -0.30462402 46.48974609 -0.36035156 C51.01489258 -0.37841797 51.01489258 -0.37841797 53.14224243 -0.3817749 C54.60851923 -0.38786383 56.07477769 -0.40181988 57.54092407 -0.42230225 C67.81023361 -0.55842842 76.83831712 -0.0808846 85.375 6.3125 C94.30642168 15.45657458 94.34778358 26.8342206 94.3125 39 C94.32861328 40.11117187 94.34472656 41.22234375 94.36132812 42.3671875 C94.36869182 54.88546887 91.46542468 63.35498019 82.75 72.3125 C73.68658697 77.87413981 63.01483167 78.14904747 52.6953125 78.09765625 C51.73810303 78.09664917 50.78089355 78.09564209 49.79467773 78.09460449 C46.23810621 78.08939453 42.68155183 78.07543333 39.125 78.0625 C31.16375 78.041875 23.2025 78.02125 15 78 C15 94.17 15 110.34 15 127 C10.05 127 5.1 127 0 127 C0 85.09 0 43.18 0 0 Z " fill="#4C4C4C" transform="translate(645,613)"/>
<path d="M0 0 C2.47461576 0.0236537 4.94815055 0.02052632 7.42285156 0.01391602 C37.34982104 0.06484077 37.34982104 0.06484077 48.79003906 11.21118164 C56.72665192 20.9726914 57.08408572 34.42212574 57.00878906 46.45727539 C57.01149731 47.85482552 57.01539063 49.25237378 57.02038574 50.6499176 C57.02622051 53.55341856 57.01791796 56.45642116 56.99902344 59.35986328 C56.97625498 63.03229421 56.98974543 66.7035646 57.01278973 70.37595558 C57.22420809 110.0417455 57.22420809 110.0417455 46.47753906 121.33618164 C37.19075434 128.34865174 24.83086186 130.11540849 13.47753906 130.33618164 C12.56327148 130.35664551 11.64900391 130.37710938 10.70703125 130.39819336 C-28.95162115 131.15868416 -28.95162115 131.15868416 -40.42089844 120.58618164 C-48.93140759 110.21804866 -50.25701518 98.58166124 -50.08105469 85.73071289 C-50.0767918 84.15517063 -50.07447458 82.57962205 -50.07398987 81.0040741 C-50.06786746 77.72361186 -50.04537515 74.44384399 -50.00952148 71.16357422 C-49.96414062 66.98108988 -49.94948619 62.79922877 -49.94578457 58.61652088 C-49.94133538 55.3709258 -49.92599726 52.12545835 -49.90690804 48.87991905 C-49.89809838 47.33831504 -49.89133377 45.79669781 -49.88674736 44.25507545 C-49.83484881 32.00222819 -49.62157406 20.03033019 -40.95996094 10.52368164 C-40.15558594 9.80180664 -39.35121094 9.07993164 -38.52246094 8.33618164 C-38.02746094 7.77930664 -37.53246094 7.22243164 -37.02246094 6.64868164 C-28.05802794 -1.19519724 -11.18488797 -0.11397343 0 0 Z M-29.52246094 18.33618164 C-33.94398058 24.07220713 -34.64525106 27.95399624 -34.66772461 35.07324219 C-34.67108322 35.7421196 -34.67444183 36.41099701 -34.67790222 37.10014343 C-34.68738669 39.30774809 -34.68935442 41.51527663 -34.69042969 43.72290039 C-34.69364524 45.26504039 -34.69700954 46.80718009 -34.70051575 48.34931946 C-34.70650164 51.58314724 -34.70835633 54.81694832 -34.70776367 58.05078125 C-34.70766236 62.17514157 -34.72128445 66.29932852 -34.73853588 70.42364788 C-34.74971129 73.61087311 -34.75168114 76.79805726 -34.75115395 79.98530006 C-34.75232688 81.50459195 -34.75670972 83.02388514 -34.76448631 84.54315758 C-35.39840366 98.6823149 -35.39840366 98.6823149 -30.02246094 111.21118164 C-22.04898953 119.04455198 -10.04832409 117.80301844 0.34521484 117.72729492 C2.97188252 117.71121627 5.59701193 117.72720129 8.22363281 117.74633789 C17.93125132 117.75819372 26.68936924 117.60775589 35.35253906 112.71118164 C42.50810321 104.71378641 42.07039567 95.21799887 42.00878906 85.05883789 C42.01148942 83.48139711 42.01537634 81.90395796 42.02038574 80.32652283 C42.02625705 77.03246089 42.01779629 73.73883512 41.99902344 70.44482422 C41.97625364 66.24755837 41.98935879 62.051317 42.01331329 57.85408878 C42.02785206 54.59985304 42.0231283 51.34585526 42.01280212 48.09161186 C42.01015609 46.5452404 42.01332884 44.9988465 42.02272034 43.4525013 C42.06335739 34.88175934 41.95713876 26.92506124 37.47753906 19.33618164 C35.32313893 17.01015231 35.32313893 17.01015231 32.72753906 15.77368164 C31.92832031 15.31864258 31.12910156 14.86360352 30.30566406 14.39477539 C22.45877836 11.45761237 13.58336902 12.14996569 5.32421875 12.15087891 C3.11471238 12.14869368 0.90570743 12.13049188 -1.30371094 12.11157227 C-16.40385683 11.81186475 -16.40385683 11.81186475 -29.52246094 18.33618164 Z " fill="#4B4B4B" transform="translate(576.5224609375,611.663818359375)"/>
<path d="M0 0 C26.4 0 52.8 0 80 0 C80 4.29 80 8.58 80 13 C58.55 13 37.1 13 15 13 C15 26.86 15 40.72 15 55 C35.46 55 55.92 55 77 55 C77 59.29 77 63.58 77 68 C56.21 68 35.42 68 14 68 C14 83.51 14 99.02 14 115 C35.45 115 56.9 115 79 115 C79 118.96 79 122.92 79 127 C52.93 127 26.86 127 0 127 C0 85.09 0 43.18 0 0 Z " fill="#4C4C4C" transform="translate(212,613)"/>
<path d="M0 0 C26.4 0 52.8 0 80 0 C80 3.96 80 7.92 80 12 C58.22 12 36.44 12 14 12 C14 26.19 14 40.38 14 55 C34.79 55 55.58 55 77 55 C77 59.29 77 63.58 77 68 C56.54 68 36.08 68 15 68 C15 83.51 15 99.02 15 115 C36.45 115 57.9 115 80 115 C80 118.96 80 122.92 80 127 C53.6 127 27.2 127 0 127 C0 85.09 0 43.18 0 0 Z " fill="#4A4A4A" transform="translate(746,613)"/>
<path d="M0 0 C4.62 0 9.24 0 14 0 C14.00364563 1.31687302 14.00729126 2.63374603 14.01104736 3.99052429 C14.0479727 16.39482578 14.10571866 28.79887845 14.18390274 41.20299053 C14.22342845 47.58024317 14.25559209 53.95735666 14.27099609 60.3347168 C14.28612888 66.48810236 14.32051492 72.64110552 14.36830902 78.79432106 C14.3831576 81.14304088 14.391043 83.49181529 14.39188385 85.84058189 C14.39424471 89.12810516 14.42125488 92.41456405 14.45410156 95.7019043 C14.4490712 96.6751062 14.44404083 97.64830811 14.43885803 98.65100098 C14.50460523 102.89829859 14.60121621 105.34335271 16.8427124 109.03425598 C25.75347534 117.15384048 40.43519214 115.20385646 51.625 115.25 C52.883125 115.270625 54.14125 115.29125 55.4375 115.3125 C63.86764114 115.3478465 70.74645592 114.71502814 77.9375 110.125 C82.75604207 105.1604415 82.30394121 99.49933397 82.31884766 92.97729492 C82.32889328 91.97194702 82.3389389 90.96659912 82.34928894 89.93078613 C82.3801331 86.61401938 82.39715971 83.29733341 82.4140625 79.98046875 C82.43277313 77.67832239 82.45234646 75.3761829 82.4727478 73.0740509 C82.52408595 67.01933844 82.56370281 60.96460374 82.60089111 54.90979004 C82.6409201 48.72951753 82.69201752 42.54933766 82.7421875 36.36914062 C82.83896678 24.24615882 82.92336529 12.12312471 83 0 C87.62 0 92.24 0 97 0 C97.04640679 13.1436968 97.08191162 26.28737399 97.10362434 39.43113613 C97.11404704 45.53476805 97.12817868 51.63834378 97.15087891 57.74194336 C97.17266113 63.63581454 97.18458001 69.52963178 97.18975449 75.42354012 C97.19344058 77.66851716 97.20063854 79.91349137 97.21146011 82.15844536 C97.22604641 85.31069113 97.22797494 88.46271597 97.22705078 91.61499023 C97.23424133 92.53640808 97.24143188 93.45782593 97.24884033 94.40716553 C97.21566043 104.9140745 95.36280758 113.63719242 87.75 121.25 C75.28135725 129.18459084 61.74846644 129.16738257 47.375 129.25 C45.69591553 129.26401855 45.69591553 129.26401855 43.98291016 129.27832031 C31.45412502 129.23061956 16.91084053 128.68640302 7.125 119.875 C0.7604477 112.62830773 -0.59509266 104.49922606 -0.45410156 95.13427734 C-0.45468567 94.0989386 -0.45526978 93.06359985 -0.45587158 91.99688721 C-0.45310761 88.60955064 -0.42209507 85.22311839 -0.390625 81.8359375 C-0.38315663 79.47368856 -0.37746651 77.11143339 -0.37347412 74.74917603 C-0.35826492 68.55786779 -0.31902351 62.36694005 -0.2746582 56.17578125 C-0.23360377 49.84770859 -0.21544141 43.51957394 -0.1953125 37.19140625 C-0.15252487 24.79410445 -0.08433065 12.39708398 0 0 Z " fill="#494949" transform="translate(305,613)"/>
<path d="M0 0 C7.32188102 -0.06299898 14.64277428 -0.12309269 21.96469116 -0.15525055 C25.37469133 -0.17105935 28.78446594 -0.19216736 32.19433594 -0.22631836 C36.11129997 -0.26530034 40.02817351 -0.2797374 43.9453125 -0.29296875 C45.76906906 -0.31619453 45.76906906 -0.31619453 47.62966919 -0.33988953 C58.21454428 -0.34199209 58.21454428 -0.34199209 63 3 C68.96526229 8.96526229 68.2475462 16.50204067 68.25097656 24.45019531 C68.14554703 31.85901633 67.04232605 38.44483983 63.3125 44.9375 C56.25013687 51.23636441 49.70098487 51.55822038 40.625 51.390625 C39.4599292 51.38496521 38.2948584 51.37930542 37.09448242 51.37347412 C33.39589275 51.35119421 29.69829383 51.30101095 26 51.25 C23.48308697 51.22992428 20.96615866 51.21167539 18.44921875 51.1953125 C12.29879612 51.15476917 6.15049893 51.07645648 0 51 C0 34.17 0 17.34 0 0 Z " fill="#FDFDFD" transform="translate(432,626)"/>
<path d="M0 0 C7.58090835 -0.06891735 15.16072706 -0.12863996 22.74169922 -0.16479492 C25.31986171 -0.17986905 27.89799862 -0.20033167 30.47607422 -0.22631836 C34.18463461 -0.26276086 37.89285554 -0.27974052 41.6015625 -0.29296875 C42.75177887 -0.30845261 43.90199524 -0.32393646 45.08706665 -0.33988953 C51.69752793 -0.3412756 56.75029408 -0.133645 61.75 4.6875 C66.98880226 14.37928418 66.5018059 28.90498186 64.27734375 39.4140625 C62.48594722 44.2152953 60.10499849 47.81862617 56 51 C52.89934332 52.04059486 50.02779361 52.12142668 46.77246094 52.11352539 C45.71720215 52.11340454 44.66194336 52.11328369 43.57470703 52.11315918 C42.47239746 52.10804321 41.37008789 52.10292725 40.234375 52.09765625 C39.21617676 52.09664917 38.19797852 52.09564209 37.14892578 52.09460449 C33.34927238 52.08937665 29.54963505 52.07541538 25.75 52.0625 C13.00375 52.0315625 13.00375 52.0315625 0 52 C0 34.84 0 17.68 0 0 Z " fill="#FDFDFD" transform="translate(660,626)"/>
<path d="M0 0 C0.66 0.33 1.32 0.66 2 1 C-1.3 4.3 -4.6 7.6 -8 11 C-8 8 -8 8 -5.6875 5.5 C-4.800625 4.675 -3.91375 3.85 -3 3 C-2.401875 2.401875 -1.80375 1.80375 -1.1875 1.1875 C-0.795625 0.795625 -0.40375 0.40375 0 0 Z " fill="#666666" transform="translate(541,617)"/>
</svg>
