<svg width="132" height="132" viewBox="0 0 132 132" fill="none" xmlns="http://www.w3.org/2000/svg">
<rect width="132" height="132" rx="8" fill="#0E33CB"/>
<path d="M48.5 71.716C43.8716 73.7577 41 76.603 41 79.75C41 85.9633 52.1929 91 66 91C79.807 91 91 85.9633 91 79.75C91 76.603 88.1285 73.7577 83.5 71.716M81 56C81 66.1593 69.75 71 66 78.5C62.25 71 51 66.1593 51 56C51 47.7157 57.7157 41 66 41C74.2842 41 81 47.7157 81 56ZM68.5 56C68.5 57.3807 67.3807 58.5 66 58.5C64.6193 58.5 63.5 57.3807 63.5 56C63.5 54.6193 64.6193 53.5 66 53.5C67.3807 53.5 68.5 54.6193 68.5 56Z" stroke="white" stroke-width="2" stroke-linecap="round" stroke-linejoin="round"/>
</svg>
