<svg width="132" height="132" viewBox="0 0 132 132" fill="none" xmlns="http://www.w3.org/2000/svg">
<rect width="132" height="132" rx="8" fill="#0E33CB"/>
<path d="M56.9507 58.1334C58.6907 61.7575 61.0627 65.154 64.0665 68.158C67.0705 71.162 70.4672 73.534 74.0912 75.274C74.403 75.4235 74.5587 75.4985 74.756 75.556C75.457 75.7603 76.3175 75.6135 76.911 75.1885C77.0782 75.0687 77.221 74.926 77.5067 74.6403C78.3807 73.766 78.8177 73.329 79.2572 73.0435C80.9145 71.966 83.051 71.966 84.7082 73.0435C85.1477 73.329 85.5847 73.766 86.4587 74.6403L86.9457 75.1272C88.2745 76.456 88.9387 77.1202 89.2995 77.8337C90.0172 79.2525 90.0172 80.9283 89.2995 82.3473C88.9387 83.0605 88.2745 83.725 86.9457 85.0535L86.5517 85.4475C85.2277 86.7717 84.5657 87.4337 83.6655 87.9392C82.6667 88.5002 81.1155 88.9038 79.97 88.9003C78.9377 88.8973 78.232 88.697 76.821 88.2965C69.2375 86.144 62.0815 82.083 56.1116 76.113C50.1417 70.143 46.0805 62.987 43.9281 55.4036C43.5276 53.9925 43.3273 53.2869 43.3242 52.2546C43.3208 51.109 43.7242 49.5578 44.2853 48.559C44.7909 47.6589 45.4529 46.9969 46.777 45.6728L47.1711 45.2787C48.4997 43.9501 49.164 43.2858 49.8774 42.925C51.2963 42.2073 52.972 42.2073 54.3909 42.925C55.1043 43.2858 55.7687 43.9501 57.0973 45.2787L57.5844 45.7659C58.4584 46.6399 58.8955 47.077 59.1812 47.5164C60.2587 49.1736 60.2587 51.3101 59.1812 52.9673C58.8955 53.4067 58.4584 53.8438 57.5844 54.7178C57.2987 55.0036 57.1558 55.1464 57.0362 55.3134C56.6111 55.907 56.4644 56.7677 56.6687 57.4686C56.7262 57.6658 56.801 57.8216 56.9507 58.1334Z" stroke="white" stroke-width="2" stroke-linecap="round" stroke-linejoin="round"/>
</svg>
