<svg width="36" height="36" viewBox="0 0 36 36" fill="none" xmlns="http://www.w3.org/2000/svg">
<path d="M12.5704 13.28C13.6144 15.4545 15.0376 17.4924 16.8399 19.2948C18.6423 21.0972 20.6803 22.5204 22.8547 23.5644C23.0418 23.6541 23.1352 23.6991 23.2536 23.7336C23.6742 23.8562 24.1905 23.7681 24.5466 23.5131C24.6469 23.4412 24.7326 23.3556 24.904 23.1842C25.4284 22.6596 25.6906 22.3974 25.9543 22.2261C26.9487 21.5796 28.2306 21.5796 29.2249 22.2261C29.4886 22.3974 29.7508 22.6596 30.2752 23.1842L30.5674 23.4763C31.3647 24.2736 31.7632 24.6721 31.9797 25.1002C32.4103 25.9515 32.4103 26.957 31.9797 27.8084C31.7632 28.2363 31.3647 28.635 30.5674 29.4321L30.331 29.6685C29.5366 30.463 29.1394 30.8602 28.5993 31.1635C28 31.5001 27.0693 31.7423 26.382 31.7402C25.7626 31.7384 25.3392 31.6182 24.4926 31.3779C19.9425 30.0864 15.6489 27.6498 12.067 24.0678C8.48501 20.4858 6.04831 16.1922 4.75685 11.6422C4.51654 10.7955 4.39637 10.3722 4.39454 9.75273C4.39249 9.0654 4.63453 8.13467 4.97116 7.5354C5.27453 6.99536 5.67175 6.59814 6.46619 5.80369L6.70264 5.56725C7.4998 4.77009 7.89839 4.37149 8.32646 4.15498C9.1778 3.72438 10.1832 3.72438 11.0345 4.15498C11.4626 4.37149 11.8612 4.77009 12.6584 5.56725L12.9507 5.85955C13.4751 6.38395 13.7373 6.64617 13.9087 6.90983C14.5552 7.90418 14.5552 9.18605 13.9087 10.1804C13.7373 10.444 13.4751 10.7063 12.9507 11.2307C12.7792 11.4021 12.6935 11.4879 12.6217 11.5881C12.3667 11.9442 12.2786 12.4606 12.4012 12.8811C12.4357 12.9995 12.4806 13.093 12.5704 13.28Z" stroke="white" stroke-width="2" stroke-linecap="round" stroke-linejoin="round"/>
</svg>
