<svg width="132" height="132" viewBox="0 0 132 132" fill="none" xmlns="http://www.w3.org/2000/svg">
<rect width="132" height="132" rx="8" fill="#0E33CB"/>
<path d="M71 41.6738V52.0002C71 53.4003 71 54.1004 71.2725 54.6352C71.5123 55.1056 71.8945 55.488 72.365 55.7277C72.8997 56.0002 73.5998 56.0002 75 56.0002H85.3262M76 68.5H56M76 78.5H56M61 58.5H56M71 41H58C53.7996 41 51.6994 41 50.0951 41.8175C48.6839 42.5365 47.5365 43.6839 46.8175 45.0951C46 46.6994 46 48.7996 46 53V79C46 83.2005 46 85.3005 46.8175 86.905C47.5365 88.3162 48.6839 89.4635 50.0951 90.1825C51.6994 91 53.7996 91 58 91H74C78.2005 91 80.3005 91 81.905 90.1825C83.3162 89.4635 84.4635 88.3162 85.1825 86.905C86 85.3005 86 83.2005 86 79V56L71 41Z" stroke="white" stroke-width="2" stroke-linecap="round" stroke-linejoin="round"/>
</svg>
