<svg width="50" height="50" viewBox="0 0 50 50" fill="none" xmlns="http://www.w3.org/2000/svg">
<path d="M24.0489 2.92705C24.3483 2.00574 25.6517 2.00574 25.9511 2.92705L30.3883 16.5836C30.5222 16.9956 30.9062 17.2746 31.3394 17.2746H45.6987C46.6675 17.2746 47.0702 18.5142 46.2865 19.0836L34.6696 27.5238C34.3191 27.7784 34.1724 28.2298 34.3063 28.6418L38.7436 42.2984C39.0429 43.2197 37.9884 43.9858 37.2047 43.4164L25.5878 34.9762C25.2373 34.7216 24.7627 34.7216 24.4122 34.9762L12.7953 43.4164C12.0116 43.9858 10.9571 43.2197 11.2564 42.2984L15.6937 28.6418C15.8276 28.2298 15.6809 27.7784 15.3304 27.5238L3.71348 19.0836C2.92977 18.5142 3.33255 17.2746 4.30127 17.2746H18.6606C19.0938 17.2746 19.4778 16.9956 19.6117 16.5836L24.0489 2.92705Z" fill="#1F45E4"/>
</svg>
